<mxfile host="65bd71144e">
    <diagram id="tbCc0DsGnFHyM4cLN90p" name="Page-1">
        <mxGraphModel dx="785" dy="593" grid="1" gridSize="10" guides="1" tooltips="1" connect="1" arrows="1" fold="1" page="1" pageScale="1" pageWidth="850" pageHeight="1100" math="0" shadow="0">
            <root>
                <mxCell id="0"/>
                <mxCell id="1" parent="0"/>
                <mxCell id="2" value="" style="whiteSpace=wrap;html=1;" vertex="1" parent="1">
                    <mxGeometry x="10" y="145" width="160" height="40" as="geometry"/>
                </mxCell>
                <mxCell id="3" style="edgeStyle=none;html=1;startArrow=none;" edge="1" parent="1">
                    <mxGeometry relative="1" as="geometry">
                        <mxPoint x="440" y="280" as="targetPoint"/>
                        <mxPoint x="390" y="280" as="sourcePoint"/>
                    </mxGeometry>
                </mxCell>
                <mxCell id="4" value="" style="whiteSpace=wrap;html=1;" vertex="1" parent="1">
                    <mxGeometry x="10" y="185" width="160" height="230" as="geometry"/>
                </mxCell>
                <mxCell id="5" value="" style="whiteSpace=wrap;html=1;" vertex="1" parent="1">
                    <mxGeometry x="440" y="200" width="160" height="160" as="geometry"/>
                </mxCell>
                <mxCell id="6" value="" style="whiteSpace=wrap;html=1;" vertex="1" parent="1">
                    <mxGeometry x="440" y="160" width="160" height="40" as="geometry"/>
                </mxCell>
                <mxCell id="7" value="admin" style="text;strokeColor=none;align=center;fillColor=none;html=1;verticalAlign=middle;whiteSpace=wrap;rounded=0;" vertex="1" parent="1">
                    <mxGeometry x="60" y="150" width="60" height="30" as="geometry"/>
                </mxCell>
                <mxCell id="8" value="demonstration" style="text;strokeColor=none;align=center;fillColor=none;html=1;verticalAlign=middle;whiteSpace=wrap;rounded=0;" vertex="1" parent="1">
                    <mxGeometry x="490" y="165" width="60" height="30" as="geometry"/>
                </mxCell>
                <mxCell id="9" value="- id&amp;nbsp;&lt;span data-metadata=&quot;&lt;!--(figmeta)eyJmaWxlS2V5IjoibXhROEYwT2IzMjRKM3VDY05paUVNbSIsInBhc3RlSUQiOjE4MTUwMzE2NjUsImRhdGFUeXBlIjoic2NlbmUifQo=(/figmeta)--&gt;&quot;&gt;&lt;/span&gt;&lt;span data-buffer=&quot;&lt;!--(figma)ZmlnLWtpd2lGAAAA3EoAALW9C5hkSVXgH/fezHp09WPeL94PEd8wMwzgOyvzVlV2Z2Xm5M2qnhl1kqzKW11JZ2WWebN6ulnXRURERERERERE/qiILiIiIioiIiIiIiqiIioq67Is67quy7qu+/+dE3EfWd3Dut9+y8d0RJw4ceLEiRMnTpyIvPVxfzNOkv6FuHvlMDbm1rOterMXdSudruF/zVYt7FU3Ks31MKLobUVhp1D2FTts1sgHUX29WWmQK0Xd+xshmbJmelEotBYUVyn3onP1dq8TNloVabnYbHXra/f3oo3WVqPW22qvdyo1ab/ksr1aqynl5bTcCdc6YbQB6ERUDZthD3B7o3fvVti5H+BKEdgJ2w0BnqzV19ZIT1Ub9bDZ7a126L1aiYS30wXezra2OowjFM7ORN1OWNm0NZSvc2U74uvrzW7YqVS79W0G2ajDmBUNdTd0wmqr2QyrDLbATMrhjdeuTnm9Sfmhl169We2Em/BbaVDr2oBxs84MfHW3orzXWyqXhwnTch95I4S8yu4u0wsIvmu9VlPJGy2c79S70shrTgZxe7+fxKDRW6WrYwdps7WtWe/8cDwYji90jkaC02w1Hwg7LSpMq6b1QsHqz5OpDAGZWqu6JXyT9aqV5nYlIuevd1pbbTLBWqeyKXil1VarEVaavVYbUXbrrSbA8jaDbHXILTBCSRcbdSW7FDYa9XYk2WXE0WXcqmknOuH6VqPS6bVbjfvXlcgKXTVrYU3EluGd7Ib3CUunmK6qAE5H92+utkRrz9SbdNZUKPNcr54TUV0fbVTaYe98vbvRc21vcLOgDN5YlXlYbbSq5yjddL5eW1dtvxlamzLSWzbDWr1C5taN+vpGg/+k+rYIAnawt7tsD2F3GhXp9I7zlWij3uvSM6VHbFc69cqq8v/Irss8SjO9KvKg9OgUxa21xzA8XUGPrURRPWJCe1BubUnd467W2rChKkbl4zNCwk2HSoBP2GzVtrTXJ1r8dSoofZ4tdVrnKTyJBdluNSOlqkx8frTfP4zPD2f73fjyzKrHo6N7tyqdkFoD524mPQS02dIl5XfpXuYKK0AxyIq11nkRVulak1puVzqVRgNzwira7HWcjBfmwY1wTaCLYXO9V6sgvop2viRlluWWFJalsFZXqic032rUQpnnlS4LNHygpQM/2e6EtXANlaz12p1WNYxEuU8xZ2FD6k+nyt+L6o7HMxloc6vRrbcVeN1mpbnFwq432zo112+E91Ws9t5Q3Qi3O5q9sU0zB76pxbBtVjRMOLul3diS7m+tdJiJdJi32VIqi9ujrc1NeOmd3Woy80rgDlXgR0TtMKxu9Fa3Vpl2AI9U/cACYl1anYralUetjuLxYJNVLuygU73uBjOxLhaYPaKzqXbfq1U650Ih7btBijIHsnRZmauYVYqlaqvRykplXRDaZiHC9mhOFzstai0WE+Ul2yQtLotqos5kT0SttW5PaVBa2ah0UHRXUnsfdkK7ok+F91WRkx356Q2d7TMR1jMzOtdpL2Sub2whqlZU70oXN7T7w7HT3qWohcYDNGhUrc600JuwCsTLQJKqPLB2ZAWEpop1AhZkMJCc0pfqm1bMZSzu2TqZhW0WlhjYxfoBW3O02x/FVvrsrZ2wW1XBr9VlnB76qr11rd4G4d5evOs4LtUxVR121goLiEpT67TaedFba2E4mUl2mtXGljDor1aq5+ZBgazfqu4PCy00qo5yADZbbWw2qddondcMLHQtDxEa0ehVK23RzFJeYkF1qrqnlIVoLd6dTPuz4WRMm3TnoGfmF7mS9xhu/VyYa5vfiPuyFXWnwwNKaRto9zZCN/Ne8+hgJ55ujYezBLqdigzVtOv3hY2IjAfX7LmC6Vcn42Q2zWd4kZkHbqReh+RtVmQz9eHDiT2IqngHZEprUKz1bIuyKyj2QjSbTi7GldHwwpgGGTHDFsPEkvGwxS7rW+Rq/xCNTMfDcFU1vMxe+nZBi1xkEIEthvdu1Rts2Bg6gCWnU2LCrANTRnwoHwY0Ay0U96HFfKfpPZXyUqF8J+XlQvkuyicK5bsprxTKT6N8slC+h/Kpar1TLfZ+2o727GQoktnEA+kANavhdigj8NKB+6uTySjuj1uHcaogpa2mXamIkWaybZL3oq1VbLPm/ft0Aau+qvA3JtPhcybjWX9Ec2cZC3OLLqsU/LNbbPhrdeUwb70dT2dDlp7AWm2qCk1XW91ua5Ocvzk5SuLq0TSZTJEH20IF20eFqXZaESut3iHvhfeHsvRQPUo+/pp21a4wFGxhFRWnXMLSk5RJqvUGuYVNsajSZJEpxvcmt5TNnxaXG5hjMRUntln1k+nmcDoVTrLlpNNP6mkGU4SJZGvrii77tX6ybw2LX2U7BmRyTffU+NiFUWo31wGZs+1QUi/alsRv18SlDsLLh5Pp7PhiCnCUsO3sgm7FmBSAm6T9eykgW7t+o39lcjRbnw4HlkjJrq+C6HMGfbvcgrxNuz+bxdMxVWDV27pUMNZqtD2d2KPZpBMnw+dAOhORsqOSyfjwspwvzbrTo/Gu00O/Vo/ERRKaBh+dbZWMF82ujOIodmNnDjtRyxnKLmcGEq+KmlmlWeuwcpll2WGCbrjZZqfVg0EpJYMwZ3Emyas2HrJeum1gQfq7F+00ZmPawFI/gHSVA48dE49W8xZbFZzurpKuFam/iraJrSEfaIPq5AiGpq7dwsO1Q+xucoLKVlf0slQgVVZSZ4+S2XDvCsWHpdKuVHFLt0N7XglseTXsnrceAlKCTmRnUS0vQA4sUf2BsNdtYW5UQHMAlI5Jrm+28fwpSQ04VhrtSTKUyWVjAeQYN5VVxL5lz0iKdn4qRppNh7NTpQ3YuNRWF0Xkpg/slNrxMXigjFmydGsneTmdOmyCdcDkjEfZ2+roxK2yM5MG1UZLXdcSfnYvddgpl7faOLZhT08cvc5Ws1vXM9YCq6xWFzdHFWCx2KyHby84S3X4nfYL7FzHkQSboF2ayhos9YQeGxdlb7NFKADHlbxv87YioNWGOGjkS7YCV0PQyrakfv0CWPjQ6jZz+tdhL9VwNkmXqTsX3p82O0Fxu2UPayvk7eA2dIJPZmWWIeVTtotUm07bIsfLbWl9pjvtj+082xHewXbMIaLbY/9gYxYBgWZY3sy7NvHWiDaQ+vaks9ZpZeeIoABK95FSAWZ3jHIBkm0ZC+2taMPCHLHFHJLSWspBltRyDsgonZATuoU5Sis5JKV0MgdZSogpBWSUTltGmUSQUmJn5oApvevmoJbk9XOwjOoN2pODOqI3FmEpzZuKQEvy5iIoo3gLNq9eRWt1fm7FsyRkU2liCnWd3sYhooWvmUNuD/sJy9rO+GmiKtWt1XqVCiOk04JXbxaLvtgr66/TQtZdVlUSvDlI2badgy1YU5+VF6N2x+4TS+uoJ+suAyw71AxwwuZ0gbBS7epYmQd2z4tNOXkMuMEBCvCpaHc6GY1qw6k1LzDt1tjn2BWQsFpt2xbbNBNrEA+wbLOY+vC+NhukNbRVKIjLpSVvfYutyfMT4kx0Rn7ReKMJfpNm/epkhD/ilaZm2XgX+Mff4Z+gzz8l67LQ+DIl7wr/+B1AYOeAh/gn2OefklKKZpNDGuxK3jzLeIfOdINguxKE7f7U+MGuFAVHMwJ7V8n4hQbBZn82HV423sLBU55C2Tt4ylNJ/IOn3EkSHDxVgKWDpwqwfPBUAS60+1Psen08iGnnXzgaDsyDBS5WjG9PH1Re6o+OYtp4R3oSeaTx1xBrs38QGy/Y6x8MR1fA9xLZ8ckIZ7Nkdzo8nFEKBBeeh32aHB3E0+Hu2vDC0ZS5YI93J26DnqIAZDwCFRptJa/dzDeNDvu7rIK5tkQucDvE6mnZIyTiDqnXILAm2iADLFLA8hKL0DxeGfqvClFsXe0fJmh/3oQFq6dVj6SXFvx2yMlRWA8A9LKSePxEaCVbBsRg18kuFOi3U7kX2eJEwL8cDPDByCg/kQqZycmw6iwCXZteFB9Aarh7Ph5e2J/NIREalCFlKHWOEsPdOZScDmcV3VnW4v5MJ+qvvTYHU6pM9c62orjR+NV2JPBARkWqAyUtu7jqAnEjcawXW51ak3SpstaR+uVaU63giebWpgxthXOAxBZPslGLaE7VbHpaDgikZzhHS3pdpaJnkuurNr2BQ5mkN0a2fFNnW8MxN4tFIL0lOq/R9Vur0XlJb2OSBX57tapBzTsi6+M9YoPgIukjnTf1qFanKfw9WoRC+hg2VpHfY2tdPXo/bq1RkXE8fnO9I37FEyJ0lvSJHHKk/89bwxUnfdKGTT9/w/b75K4tf8G9Nv3Ctk2/SA5upF/cWFuV8pe02pp+aaer6Ze1bfuntM81RU5PbWC3SO8kFT7v6nQbUr6bVMpPq6x2tknvqaxuS/nppML3M7YtnWduwxDpl682zsv8fAWp4H0lqeB9VeXchozjq6tn9UD6NdU1XVBfW21ruVLd6gjeKj6GlKtYVUlra5Z+SExR+FkjvZN0nfQu0g26lf7qpEL/7IYdD72tCz+NjdZZ0Rv8aXWMmnU8GNLW2fbTn0HaPtt+htC592z7mU8h7ZxtP+Vu0qhxdlPadYlfC/4W26nMy7Z4VaTnSYWP+zbPbQr8/mZD/cEHmlvnuqRfx84jfH09aUT6DdsInPTBdtQVeI9U4M/qnOtIud9pb0i609lalXnfjXDHSQddy0fcbepJaY9pkvm7sE2EjnR/29YPt+24n719TvXl4nan2yEdkd5JehBFWHBjxqRSnpDeRXpIejfpN5I+jXRKeg9pQvp00hmpyOmI9Jmkl6II22/MQ6RC7zKp0LtCKvSeQyr0/hWp0PsmUqH3r0mF3jeTCr1/Qyr0nutF0Z1C8Fu86rZy+DzJCMlvlYzQfL5khOi3SUaovkAyQvbbJSN0XygZIfwdkhHKLyKjrH6nZITyiyUjlL9LMkL5JZIRyt8tGaH8UskI5e+RjFB+mWSE8vdKRii/nIzy/H2SEcqvkIxQ/n7JCOVXSkYo/4BkhPKrJCOUf1AyQvnVkhHKPyQZofwaMncJ5R+WjFB+rWSE8o9IRii/TjJC+f+TjFB+vWSE8o9KRij/mGSE8o9LRii/gczdQvknJCOU3ygZofyTkhHKPyUZofxvJSOU3yQZofzTkhHKb5aMUP4ZyQjlt5B5mlD+WckI5bdKRij/nGSE8tskI5R/XjJC+e2SEcq/IBmh/A7JCOVflIxQ/iUy9wjlX5aMUH6nZITyr0hGKL9LMkL5VyUjlN8tGaH8a5IRyu+RjFD+dckI5feSebpQ/g3JCOX3SUYo/6ZkhPL7JSOUf0syQvkDkhHKvy0ZofxByQjl35GMUP4QmWcI5d+VjFD+sGSE8u9JRij/vmSE8h9IRih/RDJC+Q8lI5Q/Khmh/EeSEcp/TEZN1J9IRih/TDJC+U8lI5Q/Lhmh/GeSEcp/Lhmh/BeSEcqfkIxQ/kvJCOW/8o5HqXDRZmzX5m7jpa6aL87sZv/wUJwlz9+bTg7EvZtN+NdfHU12jOftXJnFiQk8Gx4zfsDV6b6Ux+LZ4ccN+rO+4i6aYHs4iCfG91Oc5K6t6UiQ2v1kFkeTo+kuJPxkineHgyLu4HS3KaEcOgTEobwq3mtl8GyiJsZbmgnj+JTJfn8weSgh6+/jthBz2MfHxGsdxLP+cESuFDPeRBwRvNdLxCRiYmPkF2bxgUZVbdXipeEOB2PYWObQKXKx3bpnAcY/8f+2y128synCIL+8MxWaY3qmdEKZMf6tOknXGevGm2cZfyLe7ExOB8GlYTLcQXCeKZG4O6rTppxwCkjMnrcA7XGyN5kemGebxaHO2Is8s6S57j6u+lhYB7TcHwPkxFOXKoFcZyG4l3i/TO2iuZ5y8TrmBnPCQvYnR6NBVfjb7I8BwM8t0wlHJxrD5koiTcic3FPZKqab0pd65tShjHRNq7DE5nR8MHn2sEoPbeLkyHjRO3NJFenFnrmBmPaF4ZjjlfR8fjiY7cPZjXPQDevJLpqbdqUnnGU5+tysQpHCvnerOMWbzFsNZTV++WJ8xRwabw9oYzhOCTDTAqkNL8RwGnBqoWRd6W8yJSk4n7nMBQglaA/tmP2gf3mYdPsXYMKTbFMkiN6nK03D7LbzG3f3+3K8iKcJGF5W0o7qNRm+n0i+dSmeEuSNu33m2rzL94IRvCbmpwLv5EhjwNvQkO4XzdJefzTaISonfCXm0DtxMEyjctnorretNJC4gwZxx2Upvs7zyhdGVw73E/Ydb2GQ3VMl7Dre4g7n24vfeDQRQ/AGz7tuD7qZMF/hecv7qOwUUhdXJ5fBeY3nrcyyEDJH6qk7QZbNKQePBxlXp0eTC3LvoCjdSTWVR2tvL4lnWCez7J05YBzQsvRf63k3DDimXYoHDeX/TYF3Y80Ccjk7GbnRenOj9fPRspznRsvCmhtt+fhoF64e7aIbFTTmRrvk4IXRLv8LRnvi+GhXBnZwDeWf0Z7cKPBg/NIOsdhBYgYcvq29dSf1YD/F4wBRJkSZEWYR5I2SnGlCGNiVNB8MWUAjSGFwDmzbcyydRVNedeI0/hI20J5KkfJDukBZSFJ3PxnV2Wz0JSlVkl1IUVrEZE6mcaNwx4mF3BtOk1kmF+kLhorlhXWZPDrenRwc9BnCqt198rDEjrEriEEzBplA1QL6v5p4f3DJ2eaFq+3QooLUyETxzHy2RNw2Uxc2sinhGyToIcG0O9k3nf5gFi65S7VVzBBSVPBmf8q0OdkXGbXxIdUzaSmFZjx7aAK6GyHiOmA+nkOgin+ycV5tKWRj53YIKXmiCol50POiKwc7k5Ejn2iBftnvbT4lkggBnyCObCMRvMdrCIutiMlMyaKn6jP4ProBhUNguJoECpDeejyWzQ8Jub4mRcreURKvoQXr4pQwjitjDdV4OBLDvb3WeHSlg9Av9UeKHdSs5tcPDo5mMjrdmyxdf54uBWcM/UqSxLP6AC6N76Fr0yE4b/c8z1WEgK5AoC9FUWjssObrAxxU174T74Fy0damxFlaWgmivyiSldH3BSLo76Ata2nG4CZHh/UBvq0JdIbIv4s1ZCVN4d0eHoNsHwyJ4ns8s5AWI6X+Po8oapGUn67p+e4iR/3hqtMOH6Z+23WKIvxvMFqIQIRdH/zvMCMGUHs4JByJI7obPFx9dz8++BzcrI3QvC5GjShSm9A3nq4JN1c1Esf1RTVs22chPlGq9aa8QKIQRJgw3B8oO82ZSZ5ePuDNTW2O157iOxh/YSaF7QwDzzkfo06SP2PDcZOAHrKf4AcAqoonstkfH7EvX4niEas5xgCY0jBZnUwHzim6BkI5OdqRsOgOe5l07ka+kPM2r9YfQa3n6kIqRLlnUoZJGaPm7Zg+DM8RBlCWnugG9GNivFhAf3kPp/ycVfhEKxERjvklO/6NPk49oVqZmHY/MwIJ50d2TXdMKI+GOLvTK2IpupPIjQU0AXDG9xaw2oeTcTx2C2/xaLw3kntsuY4sklwaJltplUpm2bJdTdtv9jlTpOZyN4Vaqt7h0c5omOxDTDoWdruTbtw/aOTsSSf+8U6COucl2RBSfY9mMuzciAmp1l70EJxilhyy2D4c9jkW5s3Ttelu3/kvosyO0h9FhRlJm1jS9gmU8U/NZGHcJJygW3p0UK+CfSKYssceyTmjlJ8hyiTZGWIhOZzG/QEYi8n+5CFkzelnNUaCAzHqoC9ZGttsZbjXy9qJK5ywjV1p5bLLnLziMqe6ci7Rzbk+3pMTorK6bbzBkd0q6NdHQWcTqajFl4a76VOM9DJHgm76bsSrEgbVwLCvMO53JKxPmd1CGnbSowj7kWtcrZ7v6UHbO9YJzpMUOC+j825PZSxIrT5gKod7Q9wElJ5WluYnWcMtxI932Xb+RlcImKXsXt9wpZfe/3mSz2p8KaW3gAGXUIwjxSy5YoZcdoAUf8G+nyS36BhYxeG/wP4gDhtLgW0abuglG7VcnXOlZm+25XbRvcLyriJgx5C1JKBar/XSN4JXo1fQUZwoUVDf38nASuUziDIHVUVNRBebfY7IKkPFMuVmZZt4vl59GC44O/aRoxed10sEX9Ie9yyKELibTn1cUAo5d0toA8pMp1gtMNInpyCYqLOulyIEntuQ7bXv6m3fDcC3LSMO6lgGDPxKcrS3x50YFmMoXp6yxqLc5TQwEw9lRqTSBMmlC2Jn9FTH/FOs13TdfJZVRKl1NBPPVgw/9Zg4pgMPUrwZyotgrE0IfUT6Ggy7dTEBvIQnVNlJJqOjWez8QYzcbnFUf++ZE9/IDmGP/yuO++1117vx62u9Zhi6i8pK43zl/oiM19CjjzwRSq3CPUbPpcbHnGcGIBgfHUSYDuYkMRwPnLkgmpFYaCQrAs/4whEGcupKi8oiU7p0KHZzOjbPMMsFSm7Nn7DUXGklsbVCw4FO5lQd5NQ6WwsapadpWPUsCfpMvYGgjZEE4SHMEjOoT/SXDAZv7iSAEyYbsjrVkWS7IgK5mLPaLe/zSLjF67TOCcR3j92DcG3NPrQrcVfR6kiu7B5ULWAS2X6UXmHTtH1Zk5/6Em6nTPdZQWDSGasoEdwnAnFNEmY0NSSUfZl3W+Uup7HBrBwEDkAXgcwwQ7gvrPXOb4Qs7o16o9ZrrfVsNdeGvfT3BoyQhX+/q5GGfmW6m3HBqQ8hVsYXkCIRLzaDQtEfjvHjO2rzKQZ2/2lwlqTt0XQIh95gmByO+ld0XayIB69FXQbw3x4dEaRxvR1qAUnSDO+eqAgNLtqBtrWuE4/6HJf3bYPSoQJtg4PYRudo4qaaLJ5WDb/Juk2lzaPRbCi9x9O1YTwabNupYIJ2WVvIHmXwirf2fnXCAOVks9mX0J0xS6l+uEdMYrtJfGegA2uPyZVSk1zOjPWCtOnNPThYzDoIx4NDOVIihthlZU+FDfzbw3Tyd7iKt5y8zDdB1pgMZmPUllaMpoBuVzTNQLG4IvmInNTja9drtYY+CMOMqi6bHGTfEKXPsiYSgKhAjkRWnFwwO1msYptJvdWwoa+o53vbHNrxMLQEoHT8Sr+4cMkV6L6qODJ0CZPIUqC7sLHaOm/NGKuy4uTLVt+xP8op9Kpr2c82Q72XR9/JeZXx2O3TWFAiH7MrFvt2t+KFtl3xHleq+gTEz54+Btwn9lJwSQpZVXmzcl9WxT58X161aElmtUtVboXDTo8rvfqWrLjlzKacECvDXNh3Cyta0nPKvN6cXCPXW6ts1vU54Cktuivn01o4n3Z+htUe5rxc1wi7qGNPHt9hBoBcz8yz8+eAGyygXam5l5w3WoB7GHeTLSlXbjO9uSWN9eL6lmprs41eKPxWZSUdzW1Xi9743kyk/zr0Ia9FhUf9nViiVN6hxZRjzOuJOeRIm3Ff4uoScpKFEsmuYEp2OZpsGXpuYfrpcgyuSYGDje4dntxvCDny/mzickEK1U7e4JvSbBL1D2yR3V2toNVeMVAzohGo9QLbawpeG17GBLEvWpqRxil0n8J3X9qbxtYvWDHL7vCxObkUOzd4MhqcUxtICIUNYi0z/n4Bd2NIKHt6pc61Ak0SvUWRnuo6KluuHjt84N3GI5GuMq2hw4sY1bFtRn97eVcj6pwJl3DdxS2NIZbODwcXYvYmVjfW0yf4pG3pMhwMCRfKAEqzIbZ51j84rCeTZ9zDZS+k8WumIAplBiXI8aAi8flgl1NCWihJRbqcy7VQflDJHJrzG/VuuNqqdGTZe/rSTpaRXwu3e/KSvKW/awwisAReYme9aIkElUZ7Qy7M5bGbrAxynv68xf3QzUUfHHYTTQZoIhYCNjF9fqo/5klLfoTNQZ0itIptMG+0usWmS+rJkmDZWSM1h+0klGjB/BKrQMSxdThABFvj4eVuKjqE4XOW46B8KK0RXJCJsNRE6gQsx+x+/g/q2VtmQFJ73fC0w/1+EpsF42vGAu85xPFI322NTFAoWoSnz0QGJ1B2Ugt6xtiqQFlSC3rmMGnbc7SoNKvhTd48n+/0R7ma6nh/yjfPLQKd7po3+d4PuO3+V9THqUhYR2Imb/PM/7JOFPvhonmqy1oO4mESTfZmbp+PpAo23uxxwzIZW1E61n4G2NpwNEpxfoiy9bdTyI8AaV2yB2dJZVWmdZ+1HHSRBvxzDa/F2txgfyV178j/pIdMruHbPd9n0ReqckfxeT5X8DKtRFPxsrYzUt8dHHMB3+VPns1pOTpi9aJQ01htoDo1Qv+P/CS+tDmZjDkVNIajK2m/H8Nh2ydaij1yUkCeD3I94cAFYWjF69KKTA4K/vEU7A4bWcUbsgoNN+QVP5FWyHkjB78xBRf44RRk2aD+F7xEgQOAgkLwzHzAToPCLGJa89uFGmFYYB8swCxTAv2dAlQ4EtiHCmfUdh+DlpiXe96vetfkcDVDhct3ozQRK9jGYY1n/gK202Lb7l9EOfBnWxLV4wop8D6TaoB6zLkKfNQzz4GaQufX1b8ilzUoBsG+qViR68w3W3Bm9Asa+MeeeaWL3s2r70u9ozTSBfViJ6/nIpQtZOthqv8qDaYhJjEQH3FbTsOu8nO6qL8zcEg6938oJzLLmq3+KGKs3slI/yglFmce+go82/vc6nyjf8qpiKRr8V5iXhB4L/LnwMg3Mc8NvO/03ahFCm/yzDfmRWtLZH7YvZ0wBc5S8/41V2qYljTe1okTzqPhWCZGzhUvSsNzRINsQx3gd8+zhjHjLkucjcQ8P/BeTAiJWGtlGq8e7ThCP5MF7SKJ/JmPed5nvTkQwcCPe94/qm1P3YdJWrBDOEwbNGR7N2Xzq/5BvqW9wzf/rDfYEUPAIbk5zdvGdXaB/oVp/3BfNgL8omVzyzGQRTybQdOHtMvm1uMwi3puxlqsjBh84cdnTzaPvQbYNuhmNdusHLkaM19oHncV0CJvCbzKrmZuMY9P87ZqW4qFu7jbzBPmIRbtPP5Mev04Nk/OS7b660VCTfY7c2i+IM3bqm9QcqIkr/LMF6YFW/eg06Sug5pXe+bfqeQJZAz7Y0JTBweTcUPiXTihEtf5N3O1eFSXZ0d9TtM5xnNZhRlKbcjSjWUcrLAi1rcUsezmKvIqojyviIJVkncSgL+1CI5wRViCD8TTCVXPL1Y1j+wTaPv8emq+7RqVTgfMjIj+1bXc0akbZC6Zby9WV+V59GXzwiIs2/eeY77DY5PHjKXEx+ZHLWZmJ94PRp/x2LviO8y7fXGMKLeJGyBPJeSZ303BDeRD+fc4V19uMPUS5Poztk/ljjXn/LI/nwepH/NO3/ylL7O0xZbd0HBaysei+S1PatggR8NdNuFjtS8OZpMLxFAGrXGru4bDixwTZsX7bS+t4KJzruaDXnZRb94XmD/zxJQItQ8E5vdzxRJQgnn3nq+srQ4Hw7zb71dY1744ENBXchLHJdzoDzrdRpc6RPF6Pz5+o/3tQWKvj9zroA00A1m/sPDYaMFlrfZ/OdcRF9WmLdqcBX9F/k5pyWVtxVfSMrtmWM4KtvKrEuwTMYwVSS3oawi8Zo+YTmYFW/m1A9jDIKInY7PsnSoULULlgPMAvF0nqQXVJFtPWjZIS90NcwCLtCYwNaNv980vF/yFlh0Lw7rxKqBtuo7N4ZCYhcpuKpYtykai3ox7P7Rs7iiWLUrTgtQMmseaRxWKFuFeC2EVmcebR2cFW9mxZf2l8RPNY/KSrY72cHFyz+dJedHWP2AbWJBgfH4RYHG+LlYfKzF/7nlf5PK2ppcLpupiw3ceA1nEPel3PZ4cxHJH+c+ed1cRYHEu2J5ToGDdPQ+yePszVDq392sQstwK+z8YyNMMrABKOzlsxHsY3XxOmIDv8YoIHZmGYxgvyzFWJ7PZ5OAaVL73OM61CL08R8prhrLhHrIUWOho5Pcdx+lO8DSozVFeoeESXHIGm7CFIBOGq+vw++VgcdVVwvP8nYn4PIxvQ/0XYD/sYJbbDPxaB5YhZsAfcUAdUwZ9nYMy9ZwmWAayoH7MAenKqjTD/nEHs11l4Dc4sHSVAX/CAbWrDPpGB4109i0Y61wUyk/6+2yA1sHIZDIzjzaPvBbcKk47kZ+vigkyq4YdwhVs5bO1LONi/4CHi8WyRRkpqN0fyE4EykGxbFHoEFCVmcAw6RI2a+ayAs8e2Z8Db5grWra1NfMhT4sbGduOIB38rq3C1KtvlFd82FYQqMFbPGt+zxatg0P59225zWaJFxENnyOtzpq/ngNr/3VCSwksfdJWFRm3VTXz71zV/nA0cE3XpxP5udrf2BrHlk4h0H8/B7VKAPhTFqxklH4Uj/YQzqctPHUHaGIa5rs4ygHs4OxOk/gBmfrLTPp3W7D+Prlpfs2WHM9upujpPf7BcMygY/OBkvl1cQHSwnvnWigX6AgHn5lpmz/05Tges0Vdgo7ySb/cFOM8eK/gziEao/jr/QMWWn8qq++jPtrlbrflpK4HhO+U1WovmiO5Z8kqXpxXrMLEhdxEYjW/y8tJqRvyCc/8QAHWpRW35q8qgGr5BfoPegQ9YVqx7sMpzbHaOBrx9FIc6ZUSTP8cBxgim+r2KH6HQEwOkt9gr5ifz3klnogMmGvzdo+VlF42d6kyXfOLha4krDU5EhX4pSLmZp8C/6nB+mWPQlpTGME7Jb7EnZSW2aCZ91FfrlDfVegg0ufHERo4q+iTZbFAv5OzWs9JJ+btgfeJvEqnAglpUNO8OzD/3bPXTOrFv9j3PuDKEjXFkbJ3US/xvT9JZSNxCWiYl/vm73JYSKwAyH/JIQ1GqiEF8xqfa9wMrq3ZtdnC/2sOpb2F/UMOq6KSTJaymphX+N7/zOu6bH3ZzcurffO/ClUME3tu/qvfz4LhRCV87z/7B6gHHqf4lgnG1XtuQBjh2DerTpr/7Cl0C31xlmTZ/DfmRU8813iH91aPLfphq7dZuXBgXuqbD/tjFsGx14Fv8czfwvwg5up292KDHfAI19S8NjDf6o9wh1HcS8P4IcX9cIAYlDnn5bImPa6UnPdeRWAytGyr+kGuugfxpI0K7bDUWPeEJxOJuCq5DwXm36Zt6SYhHClL7h9L5u/8QyIh4nRG0huBh+FYVc+8sGx+gMvnAYFxeblIMAEJx0SizPf4Obhqv4+yyEWeBdaseKKjnRnXAa76A775Xldf7e9yGqtAMGEKzVt8tMnW1MeHR7PsCvjlgfkhVyEOAheerNLXOMjG5BL2T3Xu/YQw/WFyXuERu8ZFmRRE8qPIT1YPMnJsJK2xRdPmoPyNI7cZz/oDkdMrAvMCBwsviYDNywLv2x2kjU/CvnRlMx4f2a3iNYH3Ha5SmRfVajLBql6vDsz3BKohnclDqbHHo/TNW30FYwmPDsZzNT9na2hg9TExf+Wbt1mgRT8vG6CCf54gqFv9GDs516AVe0N9vSGz9F+uqm+zHjnFHXIWTZH+3icQ5p4ZftBjtIkgRocxhn/anIjarZhvk63g4vDwkGmVaiT3qkDf2WHmP+CZ/+EnAu4KRAl/yDP/swAjwsYGTTzLguIDUTkJd7pbme8IBkMJuBzAIEKvD9g7/gMXKnLW7EwmM4qfcsVUWrT6NHfw2qqhNfI+Qofxj775TFrlCOpm+k+++U8p3DZp948SbPQ/++Zv0aA2i7E2lGUkqvFPVnrEE8Lx0cEaxgZ9Na8LzP+w9pwKGWpa8frAfAuxOnZZlsIJzVj36Kv7+l2aMTYCqqfzkq1eldVqN8YwC8SduQpokauxxqmZZl38Lfvk5vqroRY9TDDAdWzlVJ82Y9tum4dYtMbBkPE0hiSg3E7iSrZ6c4ZSd1Gji2wmIDyiWLYorR0W6NwnnZ5knngcZlHvY+Ghg0VPFQ/2866GWvT7iW4MuHXQTx/Rn/lS88XHQBbxWVYIEVEVYAmbi/cl8yCLh94RftNJSMRF+nLzpfMQi7YzUgWRmHpi/tHzvqxQthi79tG66ADhf/OUvGjrB3uoGZqfXCS+pXPIVCVXAS0yllL7nqwxB55h48qKFuGSHcsqUrd6kbYH+yGJm7JO/8nzXuQhOdVN0QLqXuIl6gXlX4x4wPwwe5Acu6IDltY+omFSX+vwiNYkhEp2zI95tseuCCeJttclA8GfdohMFPO0i/MY6a7w9exuuzkM7iHys9y8cl+sjuU0HqeLa4V91FLJjP0LfPMOr++e67zQN7+W7rI2Di3ghs7Atttjy+Y93pi2hAIp6rr/O8/8ukaZR8eeK37KM+9NK8TZEXuYIsDlb6R1uXTrIkVGIgif9sz7rsaoYAyJErOLsaeb31QElEMN2oPmD1QWffyiKVdbIkd3XyeHu8oYH1gmQHb0j9mzQBWadIncZD7Omj/NCcjlmFB4GAIf9y7GV4gRXriAZN8bELC4NMF7DWX3au9PCSIj77/0hFPZb4kf7a/Ge5MpOz0hSBngg95/cJcoDZyQxLzI9/6jN2O6JaQokjdvCMx/YkJgdL/FFQvrFEbxeybYReKr5GHk2/Bhkll+Jnkh4bedeKAEPhjgWBIt3d+MMcAKemMJPwmlYJ5llmHPaRKb0vf5yZA9gqNjelXR7o/jkQz31X5/l5FoiG6ju9mQ5fHBEleuEjPsYHHMh0rmpwtIDfcA483+JUEBot2/q4TnkUKqWJ2jA0Ymrvshzpv52axOjsurVyJ8BGo+6hNDTWsERmVi3l3y3l6Esim+zzO/kIE6MdEKdFmV8U0l7i7SGmFFL9QS856S+cUM3mWWx01MBYx/PINGu5NDMN9X8v6CrYZd+goqcpnLUPNJX59URHpXxaLnYuaQ3Uw7fJtvvivYQceYlu2UEkwOhMn/7h+rAfz6MlsoV1isT2szwstsLAOpZQK+JZhiNlL0c6j7inleIDZ5srcXMYNHiUjqUyXz731YoF261AT8N775DQdOfS4Bf8Y37+MIy84siJaK+XDJ/CZ8FO7E6f79PhrEho7z+lbf/BZy4DSJY7aHM2E+WjJ/4Fs9RZtUpRnPuz3zEX9XbFDHRtRzY/ixkvljlFCh1klYMX/iDya7BPeJ4Rdp/3HJ/Cm0uYpiEoovTbg39L1PWG+nAtlL1ufhxtAK569UNSuz2XS4Q8gK161k/lpHofOpQ/l0yfxH3PMDHLPsYyXfbP4hA7mPkzzXM/8NiaBPXMcl9MQ8Gm47gkG81z8azeYqGPmD5iXEBgsw/q97IbcJ5qUBvlEkXDNh9qcZIgLMkMj5e4MdZ5sxCGWc8f4whOV4IO5tlem+gP/GLX2TSLoYokXv+xyKjipdda8M9FdotWmfSWSyzfPK5vuDzjV58hdnwxmSXjHYGvaH7DbXT7A4oMhqI9RhgrQ8HGf2Z9mUUmj/cgFaTqHDcUM3EPWfqVhIK7gumatYLHDnUKRf43fCNfsq0KRfPfS2kV5+5vKDPm7EIUUE6B3EmLrGRL5pZHyOiirWYFOgoiaMzCzLg23omHZlK1KC3da6vM8ReC8F+pv2S3XBVtPlSg5Nir0MWtZvr6+1Oufte6IFLa9WquccYFEB+txzidFyaNFzkD1G+QuoOfG2IS4kYVzPS3SvyQHF32ajOWsZNhPIyErAokITCy0Pk5ZtZssLtt+a29znzog+6o7NJhgib2PYAHVLJOsX3ruKtch/EPQh3/PmK0NqrkDqoq69/PVtarBECUEr0Ph9aByrDamCSDBm4lXLYQJSOY5sH5lZthgfQS+35yDmCZv1SB5cIW9z/KWkJ5+wXu/Ip+HzB4t+Dqw3a/bpYZC+uUwfPpbss8W8VdkC3DPH9CcW8n31AtS+J1ycB6ZvCZfmwdmjw+XtelRfVVW37zlrla68OVtJH4CezJ5jnso+2y1dKRO942M+PY+jvV+FdCZHsnxcm9Z1V6Fdm9z1q61ODYB0mInwBgd0LTP4jQ6uPWbQmxzUdpCBb9YPLTa7PfnaVtjp1kPp7xYrymprSx5LF2bp1s16/uL2NnlWmxZul5pMkHdIVVZ6hD48zd7HPlKL6TvUR2lJ2ejWW03p/tH5A9bHaK17S/vYxvHXso+XR4N5R09MdVeMXebv5KvkjwurpIgSUs9SyRYDUJYvnkW2XgQb0IPGr5KzPgsNC7Q/Du25upAKIcqq1siUeX9J6Lml3BWqREjYnomHFL2LnOQnIPmweCFIQn44gKv8TfpVpGULAb1A9pNXkXU4IQg5yQQgZtKvqKPTdh2AViD1KUhdVR9SmZM5dBXCmUWtz+IDdeqM7x5tmtWG/QMFjljRq8o7+9uss0J9SGXemQAJBqY9pXjsC+P+gcjdPnD+NBjEELDhTWZM5zWYEQUnqoAf8/e+KV0iaKSFf/BN+eAowXuR0md9s2BJdzN035tJvhGPL7D1YmMtwnZKwecsM8M7ZyPIazczkmwYE/y2mjCXwNSsC7VNfBHj14phniwyJFKzT1q79nuKnsMrhom89Pc3c/J3iJagixsJOYiY+3Xlo8KFV1KdeM/45TEyspsB7OOkwSvr4DmTg51hvIbHJW5D04o32C02b2YNnxeYUvHHH+XqtfFMKTfWpmisvda2/r0H9pNepH8SowcbMF9vboSdOtal3mhYm2Irgrke8udexi+lQ3CL8YWB7oLbWmBLDEbxhf7uFbe7d2PurEWFXo13MEezJsJxD9XHdvhE25B1f2RpQfj4S9HSoc6Ra16XtuWZTOqLArNQFNDi4VReIXKqVFqJeXFglopcLs/xYsF+IOEqm8d2zWDdFl7l2d9j2RLKPte4KwzIrxn1m2wqdhIv/S0hImY7aFbDnvzAD8B86/YxRtFnlqucxbS44nlDd/yVH8o66EsCz68XwPNEoDETnl4aGIkLILfPgdwVTOPLq26WhXobBn7xKeWvBAi/nnXXQgkm4GjYr+66z/ca/aElqSfD7oU1VMn+0MavdNkEN8IaWgWKfIw4/Us2Uo1Hs8UWKT1lf+FG4O4RvgbSV93hA2z3IWaW7FazWumGZO27ddnAKPi2WW6w5n5+ZfPbHFFQIwW5eH3T6l1wXksyHYQgs9C+Fc1ipSobK52YKBTfrKvTms9vja3fiSNQYC8KGzgmWuu8dHJlWBVJOe+32BlXwpxFJ1OJq6DnPl62ZmB9hkbi2ZJ1Q1TJdFFNWfWWQx8nYj0Ut6eJm+i+xG869Wr2N23cFBb7lAGy/g4dyEmi2N8QDO3glSzE4a7yU7KcJYT+vXKibMeDlsKoZQl27YMv1s/iPnoGcAkTx0Z5RODpgO2S6fRk9eE9zF2Ameu697fDqNqp6ycTTbUtE+65Lwn61UjMa3C2sl3JcEoS+yEtn410fhbUa75XQIvt+7sbClxaF/O8HCn4RHS+ro7xyrmW/GCC3MnOViSQU6sV/SbmaY5d8oVulduZupw+iKSG4zz8jzG1v4RIK2toXFrJbkai1rhCfFK+HP6wb6eZ6EMHRE7WnMqK92V6G8TRhDAGd0QWrYXazhHhGHtv+UbM7pC9Cm9JpJ++j5Xfs8RNPY9TKq3mDUxJPVirHFvNvOBlxwy2sl7DfroysDyM7UnHPzEiq2TejFFJ5LCI9S2bE9dggQ1ZIlBZgIXjMwN8S2CWB/Ogt6JX8yCRKEbmbWx3g8lDYzZbHMKsszI6mCCLeLx7JYcuiHgQ83TWsnHrslmUX0YQcWjAdGuvQT06t1TLdySpsAPz5hkQnjyp1bGasioD4jBOXKl4vEyAKcRXH+zerZYap2AjrFBNrhRdSxom/Xy+aegXLr2OfigWD2MezbfVxlbjqRSrnbSw7pv2q/egmPC+LJ//9F8w01C2Xx7KvukxWzR+B2pkKxLzrsDjji/fREsJE4tjK188OwDZGVAEXM4oh0rFXxzmPXQBm65h38pAc28hUNusovAUImCr6uYhbFzIqyLYZW4W0ABpIF4eThjtFg4kmrLBJQkgyosZb9vu8NFVV5XVxsDfw8Y+xvjYFToa9hPzSxzjq5MxUSvo9kcVZUw24r7LIRcCEQ5BnIf8ww0VRTH+o3LOmlBntSLhHNYF1WzjNGeQ4sDjfsKGrzj3mVKOIwOyYywMPNLr7GOPQeQH+PIagnol05HfrKcQ+7RlSaI8o2vefSxffYdyIu8QdyGZe0mzYvldOxorebPsnWRJTfsWwS3CHXNqpmJPJ0FFcnoeti0Wz7y5ZM7oHDphvs8310HOdd+h95kNsaUcc9uJ1RxvTUf1cTN+iLMYoBvmSZtfCsyN8yBd8MzeTdqZXGV3JyJi5HtzBlq9UjnQo8ayuQUR2jlHBUrerVkx15F3Bt5tx1i1UijwevsxhHqq/ZfizBGUS4075rmNwNQz9CPm4dlJ+pHzcPDPqa/3qEw5IzAkqtrWVzNEstwefyywepjyiiPkFmAt1sdPpnwuvD/9ZSJ7xrkmbk7uZohl8u5bbd3Xw3Mk77eju0kCNtkuvgchEUoluHJUWVIX4yuy9cvTMpaHQl1f78EQbcC0fRPu+0f6m0z9bQiD9TeREjxaY0pXxT/E02rf36ttidlLPUOLLGZJGnsHthwPttDk+gC6fgZavZIBCVOnlxmlxHb0/oDja4pqEevI8oxYHQdNCVj4YsjWa++7/FNuDMl0d0tzfhrbDmbp43NbUXrIxZ3L+zbuj1mLhVAXiVC/mOHX5SG7e7G+tMe6RSuLMHHoLrFa5IL1BFfjF4aoq2x5lFcQfGHiT2oP29aoqwBOoTHurZAfHOmogMr5Gy2KXFxWQJxRQMzHDihoMG/Yiuzxkr90pGPz0kGLs5OyxmVFkZXSNcdXvsb4FuYxzzu5HRdQKsWlbdiRi1PcqN3++FI/kbvJ2D0ZZjc65G565NhmEfparsWyYDXIbRutWy0sbcofg2IH3bXB6i82nq1Xoo3Jbl/Hs2P8AjhiP2W1248QDo5TtJQ29AVXB8NK80WO91z0XCQIAQ4xg0Ndv1CNjtkWfV8GFXeRnplev8vEs7RwzS+xoOQqQn/VRc716+1PZlxwzFzRTzgXunxqA7LGdjbLE1tyWJ+LAPNsDVA9NXWTsasruWarGP5Djrmz+kB+9VXO+oxyi1bRhrZ3/R03PvYa/ia62J0cHkzw+na5OBCNhB9sXcEaAkPh5mFKCdWbupvYFC4WFbebo9o1mJDK/xtGIGUtyjFmhC74sDMPBx8wZr+0zVKZROKBVfWmzfZftuhN25zuhkmbWYEV0d6sEImCAwnQL4mYyD5HTMwr9XUs8pRd3YtE1jE6Vg7FFgziQTudO9udapjtKMnWP6E1VkwCWUQlDIK300/EQxAp1ATbaQtxXUIV3WwHzBxYTHh+SWU6IeEpvefykKgeJGQgO0TG7OAx5RO8Hu3sb3DRx/FDWcG/SqdqolMBuVT7gKB7w2TDYtbHzfihY0NACQcZc5+ScFIaMpnJvMiTCaG6WM/B6cwwK4mUtBfveLcpe9EcHbhLUjoFcEl/027+nm1HjHZVrQPGOJk3Is7suEWlv4NqMlGurGe3KG2B6JI0T2vUYIA7+znbSzlK23R0iDvYaKCC1ZpWuVrtE6sj7rrn2qCXDKMaj0ZExesCWcggnPoVsjg/p20dqgnkjxpweaFnUfn6SsdmCbBsbta5sJCCP9+UJaWPqJDMoVJBYPLo+QJzKr9AYaNNdRsbHsnkEOuWH/iyghNlLJW4fqMgVTpL3XwapboaHEHmKDH/wKm1SL6E2mN8M/rBzrwepkuhzklZPjHLRbbgZ8Y6SIdmf93PdF3dtXB0DUajjCNH1DGRmH/kKDfHpO4hRNnzPYpb2ZTamsjSkmQdLNAok1diPht4i9QRW7OfJCK4iCJguRA42yY7YteW/W05seUhODkzyREkHlQJAaEBNKkgmBEnh1SxZYcDPJuyc7tXjnDgb8R4rjtxf8bMYyZCCUVqVNGscrGWlbwtvA94E779J6YGqoaQ876FnHN8ia5L+OlZWAJxEuy5qCw7v3oIv8+iP2A4sflIYPI1Yx70liY7dCQ/j8CELg9ivJK4aWmewGRgRXTDTsxHA2/FzkS6SXNpFngnZ+nO0rK6kJiPBd4puprC7Yo5rVOb4mxYe8GCOTMHb6emuS4zWbAwnJYcSkq+JhOA5b3+kFKuW4n5p8C7Ybcwmf/MKenS3LQ9lwMS1uH8lPAfsrtZPgW/xlklQinQNc/cUrBcqQVMzGcC79YZeuAm9m8Dc5sUo0yKfxeY27NJqeiGFDFRd+xNdo+S1rgLsmvLkWc/m//nlzjopMOL8n2yolRrwvGfB96jLg2vsVn+VeA9enc0ZHoQ04p5jHYFFXnuUh8guMdei7LszAXqnwi8x/XntfZ5JfP4+Jr75ScD7wl92iIu6SQJFUuoZnh0+8RsAh1eOIrlOGFZx0LBpVUMrz+ejK+IUm6lILsj1yATYOw4Pia2a/yXJjUig6MkpWSR8XQflKccUqN3Zu/0xZeM9ZvEh/v3HsXTK4VY+9zRqtklAMZlca9t/xil125srWtI7DgFwy6FcyJHhebEuqWD+BAji8nbSam/uGQCqbUMJpnW+d7OiEWmURlnGVnEVt64xYgKFfLtJwu37LFCNMjdIC7h99jbOMztDHgnPrD7k70IRPIcgoBrMZiRE2EumhIdrYp3VsbxlkvERcKJ/WTWYVEzOYMIaBdsBnZwqI0XE0Bb8jFVzl+b+S0k1jRngQayukCic2lADvPzuSnjnkSzySGnKkiU20wuKiHP7w84wtnx+3MmbphUZRkS4JUWmUvmZDKPO86pvJL4VVVXxep00h/swhT3u3PYu/NyfxktZvA6NS9n+g7TfsyrSuwrqV63i2B75WteUTILmxBGFthnwUJvvGJXPrZJM/rMxmmFfKVC10BafkHJKw+FtjB0zTXzwpJ5rFCIVMkd8EUl80RVK/NCz1uQ3Go/wXraffjRcqXZHzk7vtjf3YUvUzJLiYSWI3xsW7OclrvC/1ebE2m5ihcEBwr+WrOijy8ZS9mc1KxTYwJhWlzLYgunbcft/pUR8gdwJplbSXJX/5KSd52Mx44kXycvLZnr96C0bU/tDOMGpV5H+1h67LNXWkezROQz3h2xBxGnk80dBblREdvMhdq+m1AfYotY+BE+wWhrPBD7uXvRvKbk3aKgTlwA3bqTKktiXl3ybpvGu9aYR/E3HsWoobtzWDS3az+rU3Rzn2MIUZQ1GLZDv0PrQsJoXJeI3N7mm0ccygHqyni3wuRizkB7ZPbJFC6eYz1jigl7FA767Iq8OK7be+IGLDGCx+yOhoc78uPEbLvpxBf4l/2u5D0O7pCkMysYQJn+12LCcRw78SGbDEKq2rmE2BPCa6DbY5+bjGNG6nhN9pDBF42zsAy7oOYWlpjXlbySfJ25Ir/zKHTN8f4CA2eq0o8LQrI23Nur7h9JhGwlJ4X58DzrCC8Yf2A/StmkmpWE16O+fl0olWzeaXbZluoMkrWFSjL8hV2hnlT01+4IpruPngiILhZ3CPyKoiGpjSGrcbq7f4UuvKXDq2HL10JeZ0AykycOrw1fkfGlC8NfGDOEdISQtHuELGbG6OSQmNeXvECKq9KfoJV2JNfWHprzFMqH14IudNJH6aqTxnd/XrTWI9Fdz2zXa6FEM70MtSbL0SeOSH7Dxqa8aVqpdN5QwiXuW6dCsBVoTso7gbAiO6hZa7Qqss96UVf+0Cc5v9KoV/SmU2+Sych3WTthFNkr6PKm3oMvFN9wLNo3XvJ2g9KSXF2mzz6W681tKArWiWarFvbW6mGjJl871E5WUvY6sQ2J5GwufW42M+4sP+UiPwtz/CwW+VlKO6yM7T0oavwwby5WjL+HGrgSp7i+XtZwf1NSN97Cn2XK8eXDKZab5W5Bb2XTOXAvJczbS+zY7g24hbybm8A9VnskVtyC3lEyy9KxjN5CXsUNyBgl0cVbkY4tnKsi+Sax6w+PkDWCFTY3yqPJ7JWA+4v1tih/pVr+3LB9omevWfXlQlsf8wW1uugWuVJ471alIdNSbra6PS1RWGgw+b3uhk7FYlbotToZytJ6J0RdO1pBeblYLiKeqOixaUWn7iS9kJyyk1pfE25O06pp/1L5GfjVj2T2Gq3WOX0Icl0zdJ+vvr4OF52t7oZg3pBLhAURZ4VMPG8pGfkhkQNXpheOZOdm6ZW8bIFspjOmdwTMvr0OBydfROAY38IT87ZS/hZxLZ1PfFCirnj1nNRo6fWTNdEhyfsyh6ALR9K19UPzCaZpkgUGuvphSz29j8kolnknRIayHbSm55TFYxTswvHn3vu6RzVyF9LuVaiwXxmVWc64F7Wjdx2XXIZ5AwBK7KfoEanNL803wXraNIr11ye0Hop598bWsONzzj2byvCFyLb0w3A95kB9jfcWJJkjhNTi08vntsSrgfilAo4IMJsXfexvzC3yx10jbmNCGZ6+g9K7IsZLkXDO/KNcebXS3cgfnwbrakpKQkVeowlOWb/rrEVKC9FGpZ2VrGFxhSW0uKXfuV22uV5qtE7Yr9Fm5RVXTi3YyfyxrPvwrDNc9suz2avbM1p0L2mva9SL72avv+ph7Q3yUEifoxSAN+bA7MnFTUqWtUYEDIMhg765ishxiGb9y23uavfk7asJzofygXfDCu60mA8EOmwJtm9f3/RH22zYnLDcAsHv9OR5jPw0ymymjw0qnW69qqPzIoRAh2T9ZmWbJKi4b+WXNuTv8pU37uTfhY27+Hdx427+XdqQv8W3vHEP/57YkCCMzNdK9tLh5FqrhRTIncIcYvYisqcF58yGQK9jHyO5fu6hxA36aO7GLfn3JpbGFunNDfnjpLfUBHZrrcu/t9VkxLev1de3lMYd5KqVthvAIzY5o5I+EltK8ijZaR4dbvLvY0QZVPaPjTZRLDKPE64ez4wLnSfcyz9PrK1J68+rrK4Km09yT44+vyM9P7kjA/gCt399Ybe+Ke2+qIphJP1iJo7kS6KK/t3cLz23Knx+GTsAyVMiFdBTZTB3CuAuGdzd7m+wPm1V/wTrPas1mZmnR2013c9QFp55XpMvb9erXTvgr4haWx39pOtX1jdlPF9FWExG+NWNymoo4/qaerO9JRx/7epWt6tyqdh3aORWhX/3UIUF2k0nr0beyjCU1VRh3yC/1trqWlrr2C02E53JjU1whK26OhH2T1OcbYTr9r3fOdnGZCgN0eXOBGNsnpXqXRMrSHJ3pd3WW1rb56NXK01MArmqWMpGyPzDgwi/5gxHvbkmBEI32jU30+uorPwpBUtngwChzdWjsNLRP118tvhW71Su949h3W9tNjOlfQLRDgIcjtITa3X5SUFLeXhSLf8DC5+fSuyLpaVdzl9iZ+JLnVyfIilqJXw+FfdRuLiTPVZ6fRqqX/y7HU/v6G+InkGSEn4meaGtXH15V95LkvnqLm7YqipZJZtXr7oRVs9x707el4/1V0NV7QCrJKpVguktx0k5zRfaLKQwscUi3sVMDZbSCbd9LqcYJ6Jqhyt/C13RbxRL7nTUrjczvs7ANcn1JGizauUNola21xu7nTCUXsnfxHyvtiz8ZhkB6S0iPwu6VRgkvU1S2+ftykkqrDvoQtDJPkLIkj5SUkfqUSI1PCyyq5VGqAv5XKMls9XYrHTu3dIWm/bxKTn0bFPH01LsWr1ikdtZ7l6rWJa9k/aBA7nr5mzZY3OT9Dg3JY+vsQQd7PPCzfYGRlZ6fPJaqPcaX4Ahsyv8C1lHYUf/TPgX1ZsRbNhWX5Yuu7tEn3X3oHBPlBq2r8DYMDn2ReRXYnK4SEuLX0VLEffXyPhIvzY9z3RE09Di3lMpRGnhTgrdtHAXha20cDeF7bTwNAqqqlK4h8J9UlAe78+2gAdkM7FT93X5VvP1sn7d0qb4DTKNYc/J6kEcgnW1Kr3NY78C9b1BMqiO4v5YP0nrZY6XdQljfBXxZD6CJ1OsCoHjw2Qfkd4TuByjJRK3OeHUOCQSdzyAEVTlfNF2P/k0vvvbKib/2yoUvBrBZHFj55ED7GGlKtbjGn+ShZJfveZPUHElrYU0+qujbsv+zoiypxmBSA0Av4J5zX5Imp+jynPnqIR694Yc/+/YSWo4dvkyAVBFrEynfUdoxSvP9SDenvqd8ud5siMh6sfsk/FSv8qv65QGtiZ9FVm6ihYu5UzI/TmO7iXt8eO4knNoCVNXmNVPMqtX1YdUMrV+PwUyTEfvE9Db6BPPKvwUOUVPNWG/WK/x8I0ihBYFBv4GBkJiVurnuuhqnJZpIDc/fwtOMu4fJvvc3pjPcLIJMwwHptWexOIs8hg9re5LDGJNtNJqnwRyCg2FNHwkmv4djbIqlFql+PdIcdS3P7NVnvK4WhBSVGSFFGMB+OYRvmzYVWPqbWFtSP0stB9E90fWUJfYC7q9SltclXKrqW/BmF5KC7K3RxX9UxmLFalfiqw2tzmyxJzH+kyKqAXUiaWAYKQj/Y2AFr1w7sucKAHeQUgF7oK6Dd4cQSv4ElHBkfzy44zxZu4bMlriVtKWmogYachpDgb+gRh19WHCg1Cz8SDRCJkPCUH52IJC4LRlQ287JtDQZV3iShJ6fPg4a0mfHuuPnc8NbXQYs9Cq6gncNOqrHevieG7J+3P4KMlFPVzaX1r9M7qc17v1c4FosTWPjBzMizR7bpn5Y/hyWojkG06YpEN9WW4Cd0aSRcvJiIwnuzLptVug/CGaL8vl0IHM88tWQnI4TjgXe/NNa/kHo3wvbeToyAp6Qdka5lV3D4RFXxwNCSq+HLpcNHPdZ17BCPYnlzDBrywjbeY8Ma/CQumtnXl1mTsae7PanyL+/mXzmjJX1QrqEmzWT6aa15XNYtqJQh1TpZiYINFMkel9xn02LgtQLHsP8zJ3EBNIJVOqKI85Zb02ZHnIrRgBkorqc3eDsAimHiWvN3vb9VB8PL/Fltq5Cuz+tFHPOpx2dyylb3MLG0PJLlH3+xLfbQKB7gpkSg2kmLElozO+3GvTRFgj9YsYCGImSC9D7Ed6jeYfsvzQ/4A5G9flXcx5YhwTeQt3bNDGX5q5cb+E5oOMx5cycZPZfixfDaYSWrHEk7uZRM2LmUaFRbomCUoTtWNtzGEsCChDWDwccY/dYl+Gk6UN0YuckcJsSUsvSVvpJVjyL0FcE636lyBGqmGp0uUt7J/segDUw5gLuGVDpMbOXnfSFpl6zLG27Qpp0c60cdeJ0QQyR3kY4f9Qga5NHE9g5ui/tszVQXFijo1S/xJMlI60NJPbHpsvp6Gd+qBFpNXmW8yBfN0Go5P/1JcCIVl2Xlss4LzXw/hLuEyic9tSL/1WRGpeeUZYAss1FpOJEnI5iQSDA1Y1i20Q64cstnU3Xzbla1Ox1axcS+qSFpmGDNtFBLOfrh5OuLzSR6eU/IfSJ6LBkMthLitR+GQ2jWe78p60fOmqrhLzhrK3kFFfE39Pv5cQpx0wdglw4kL6e/2D4UjMONsQXCTmjWWvVKAJ5MfKXvko0dilhHB27fd0YMP1oRQ6lrjnT0YDC4GmvH7LCna8kfRSRFYA1YKb5i2qbakw7r9ciz0FNqVAm0QqbV1i3lyW3xrSMAWk2OZNWHVFNW9JcXRLTz1q43m7GH19eiSejZejQCWQ10NOXl7C0AWFW2vblgBv2QtEONoIw5Xs7nOrv53JGG+eEZifouup4+yt6HRsyb8dk/P/AwsKAACVlnuQlXUZx5/3PWd32RsXuSg39yy4XApFViVL9uyrRA3GzQ2dccamXYk2UxaHoHKy/IELuGOCyR9BuePJ1NRBZ20mMwf0xRrFuzbTCAziZl7IcYKa1EXB+nx/5z3vu380Ux3m3ed7vs/9+f3e5xAEoeWs4c29J55qbLzVbv9Gn9nykWu+f9mFXzp3+dXntZ5/6XkbFq5ads01i5ausbE2biB3rGq8Tbap1hwE+hIGz+T/UpOruObN8vnALLR8UPXFtas2rFnds96qgxE3mVmD/vDxYhIxmgLjnyqwZsuHVSu6ulcX5v1H87H6W/YZhY+F3muavBb3rF+9rqfrusLynutuKCzs6vlu13es2v5LjG0BYVS7AgWkb6xavGxlYdlynsuXLClcfPnK5V9fvGxhx6Kli+BXdCxeenHHlYWvLLpyjo2/2SxqtlmbzW4PZ3esvXrt+rXWsbp7w3Vd66z8tWPtmq6esyvcZ4L/OXYDddUxv1qrsRHU+24YbDVb0mt2fRgGdrN1toRbrW5+zvJU8b0a/hSqrHoKM+m1gUvDzXb40xzk9cPUU6pnWW4WQ/PuUkS4/NDcBAuCcKPFV2V8UP0ji9ZwKuHNdnx+xofwbp4FOfjSsYzPVd9odlJxes01ZXwee8XJwz/2k4yvEt+p+JR7KuOr4cvxN1v+7IyvSePTWZTxI7BX/Cr4oRsyvhbellhQDX/goYyvg4/HlvmhAxlfn/C5cIs10FuFb0jy1sAP1Wd8I/a2THm32KMtGT9SPHlD+PvaM34UvPrKww9dkfGj4SPmMAJ+07qMH8O52EucJvy23ow/Db58Xlts/faMH6s4zKEWPtyd8ePEL7WgDn700xk/Ht5dZEE9/KNHMn4CvE23oAF+3QcZf7r4J2W/1eY2ZPwZ4rEP4G87PeMnwqueEL5v2HwmwWsOOfhx8zJ+cjLnxtDf3zI5BWNbqOI3Wbwj46fCq3jjoEZvz/gzk+HoAKN3Mr4JexVfw2W70GV8Qfwyxe+1nUczvhle8UdySR6bnvHTxJ+n4jfbH76a8dOT4kfB39md8WdhH12soXEJd2V8C7yGpvgrnsn4GfCKPxp+3LGMn6n4O1iIQXmrpEvGQnbZnNy4x9/etLP5jqumnPX5pm1Drz/+ylvrS7V5qyqx/oLam1jEdbOs/H7rXS4R2jXpfSTFKb1neqd4H26gzIeQB/QOcE/ruRstusfgK3Q/dRd173THdJ/QH9E90Z3Q+eusda6m89LZlM9BM995VLPU3DQjEu1S7+pTq47VHLgguJcjfS6YZ88H+d7QfsrOy9G1X+H1lfVX3uW32vHVfp3zc7NqksDUsMlmECq8cdLEiZVHipz+8DsUjA/ywcqX8kwtl+PvyGCynRNa9Zi53CRbUDSb3x6WASZmv21DVkCqmt9uq7EvNLcLh2Ugs8ERCbALitbZgEqAD+ABIqRAXl4lENXi1VJMgBgfkCxfI0s8kJh5oAjRxuEgVWEf2OBp3pNSANE0gO1fkIFUBcD6YJ4/EcncPqUXeLCYKwNiF6ZgeAmEnQ4IaKkR+au2nMU5wBlt5t4ncecCiFcBhT3mVElhDzFu98Dct5Gy8O3KpRGpGPYigyCo3Y30WXrQboSQfJCCPNhX0byH5hdt1lnVDvFCm5XGU4OCNYs4v2huDmVfg2yFiLcDLsRiwEsKokKAGSV7C0cPcimoKcUYnNBeDkrbPkukOZDWy31FC6yTE/KlCdhTlCbg3qSKauQnEHHYblFdu8VDRYtPI4oSRpPRHixaqQkiegbzs/CnNCSV7PLAoq2JhYbmXVZUYnwOgqA2m+KVxSYDlBZJHcwKQGVlTdwHO5unSwS+NpfnMiwaINy1fPlTm8Wks1/rJH4G2M6IB7yE2O+BRYeQsnD0IBc7kcQYpEsFLdC2z6I5KK0kddhtIeNyH+OmKxdprBVAfoYgMJEADWieJoVxHNZKVe/icwsXJn4WoBt0n5cUsdEDsy8jZeHqAbjYqzw+xo9pgqBeXqupAHxe1wJbAahwFmjl+QJPo4jlmCjSBuRDRHO3AfqIpAL6IOInPTD3R6S3eBsgl+OVGB8DWnkkVYAAef2b7NRhfxukgF5gm4Y2Bamqvw1r/76oYg+80QNkSkGqInp/IIdHijbYIvZN1N7uWwuQAnd4OxYFNh4YAGO51ZNRRlG/p6jhzsQo2pOAeHpikxjjNljDeW+hQwFXBLhqeq6AVAUwLdfoHWIphAc79xLLLhoGUhWfW7WWLEfcbqKYXoRuhluYCGBQhTEUcYDxF7hrdgXNfoDfbi5E/BpAN2S3l7oQHphbhdQWcnMBbCGrQ95DDHuWL6d4SpzrArLY9Xz5AVpk/EvlB/BClDXR39BgWqrWW4lvNIGiCNapDWLzGMEciupGtkK4bQCWTjTgJcRBD8w+ZEbnQkTqYTZbiKaiyRDqsqSVRNvRR8rPIACYBu3WqV+YE8QYg6k7RpBJEEeQfm+8ANAiIR2SgnZ6YG4zYytAuG/iS2S3lD7GQugKOTaLm1W06BRZbArE22gl9ys/gEGUNdbHM5NnFYRuul+8i3lGi+iEOMS4NiEfYbrxDkAfxG4vIZ7zwOx15ABERA/2GrMfQiqG0aUjqNp23UV7Q4skvfHx3WjmU3f8vAdmR6luLkTERnIMslRL/1MhCky08sSfEtkDddaA26sQxv10eyA+4XkYIlKwu/jyEnInvbuYznYInFkBU1E9Doju8QCnJzww9zLy9xDxIBFehPgrz2GI6B8Q7xe99JUIDFKnvQehk4z/zObn4O0VFCreEZRfbd8vklPgnFLAB6CZpIBRMKZ/JTq/su4tMq8DuAlEih5flADZJMb2Oy2PWPdKC8gDqV2zVycgVfX/v7sJ6yHm8DI1CET3AxQyBakKgLXjUPBDB/AdyygFqQpgj6l0eyfJqF/LMniDYNVEjT7r7Sj9kgS4v2Pj6+SA+ADK7gqUlj4TnYC/h9sI5IG3lk0KvFvpgiR2dOlwIKOodThQoMTY7tKtdgMcv1jdrhTYowKoANyMFzyw6AjySRHHAPux/wh5AMKMkEf5gnQnE6LEhGQxOIrLJJfCGe0+RkG3S0GZqM+CpBsOKwV8AOovBepKxgC8D3pg0YfEPweik6scz+QZzdvmdxjJSiP5gjQtFQ8OUTQW0T4Iubj7SUoM93MIBWUEPovkVczH3q+k3oXlb4rMkWtSZvQ/Ug8egbkFlQcqONo4HEhlx/mBkXESMPm9VKueFZCDbzUFqQoH/rPP0gRB3VW0yP+Paxy6lQJ5yu4X2ATzFiA6CZBx4oX/IOuMD0ZURa3cyX46fQ1QKiSqxMZ6VZ6bRIzDvHYejGRVeqAfsxxy3V4O+iBlvrHXbAv7c8wTxNYP/iFp/gl4GM2MNjMnogMwYy8WbcxkD4QDDDIXyRGk8SDNd5gv/wY=(/figma)--&gt;&quot;&gt;&lt;/span&gt;&lt;span style=&quot;&quot;&gt;INT NOT NULL AUTO_INCREMENT PRIMARY KEY&lt;/span&gt;&lt;br&gt;&lt;div style=&quot;text-align: left;&quot;&gt;&lt;span style=&quot;background-color: initial;&quot;&gt;- name VARCHAR (80) NOT NULL&lt;/span&gt;&lt;/div&gt;&lt;span style=&quot;&quot;&gt;- email&lt;br&gt;VARCHAR(100) NOT NULL UNIQUE,&lt;br&gt;-&amp;nbsp;&lt;/span&gt;&lt;span data-metadata=&quot;&lt;!--(figmeta)eyJmaWxlS2V5IjoibXhROEYwT2IzMjRKM3VDY05paUVNbSIsInBhc3RlSUQiOjU5MjU3MjcxNCwiZGF0YVR5cGUiOiJzY2VuZSJ9Cg==(/figmeta)--&gt;&quot;&gt;&lt;/span&gt;&lt;span data-buffer=&quot;&lt;!--(figma)ZmlnLWtpd2lGAAAA3EoAALW9C5hkSVXgH/fezHp09WPeL94PEd8wMwzgOyvzVlV2Z2Xm5M2qnhl1kqzKW11JZ2WWebN6ulnXRURERERERERE/qiILiIiIioiIiIiIiqiIioq67Is67quy7qu+/+dE3EfWd3Dut9+y8d0RJw4ceLEiRMnTpyIvPVxfzNOkv6FuHvlMDbm1rOterMXdSudruF/zVYt7FU3Ks31MKLobUVhp1D2FTts1sgHUX29WWmQK0Xd+xshmbJmelEotBYUVyn3onP1dq8TNloVabnYbHXra/f3oo3WVqPW22qvdyo1ab/ksr1aqynl5bTcCdc6YbQB6ERUDZthD3B7o3fvVti5H+BKEdgJ2w0BnqzV19ZIT1Ub9bDZ7a126L1aiYS30wXezra2OowjFM7ORN1OWNm0NZSvc2U74uvrzW7YqVS79W0G2ajDmBUNdTd0wmqr2QyrDLbATMrhjdeuTnm9Sfmhl169We2Em/BbaVDr2oBxs84MfHW3orzXWyqXhwnTch95I4S8yu4u0wsIvmu9VlPJGy2c79S70shrTgZxe7+fxKDRW6WrYwdps7WtWe/8cDwYji90jkaC02w1Hwg7LSpMq6b1QsHqz5OpDAGZWqu6JXyT9aqV5nYlIuevd1pbbTLBWqeyKXil1VarEVaavVYbUXbrrSbA8jaDbHXILTBCSRcbdSW7FDYa9XYk2WXE0WXcqmknOuH6VqPS6bVbjfvXlcgKXTVrYU3EluGd7Ib3CUunmK6qAE5H92+utkRrz9SbdNZUKPNcr54TUV0fbVTaYe98vbvRc21vcLOgDN5YlXlYbbSq5yjddL5eW1dtvxlamzLSWzbDWr1C5taN+vpGg/+k+rYIAnawt7tsD2F3GhXp9I7zlWij3uvSM6VHbFc69cqq8v/Irss8SjO9KvKg9OgUxa21xzA8XUGPrURRPWJCe1BubUnd467W2rChKkbl4zNCwk2HSoBP2GzVtrTXJ1r8dSoofZ4tdVrnKTyJBdluNSOlqkx8frTfP4zPD2f73fjyzKrHo6N7tyqdkFoD524mPQS02dIl5XfpXuYKK0AxyIq11nkRVulak1puVzqVRgNzwira7HWcjBfmwY1wTaCLYXO9V6sgvop2viRlluWWFJalsFZXqic032rUQpnnlS4LNHygpQM/2e6EtXANlaz12p1WNYxEuU8xZ2FD6k+nyt+L6o7HMxloc6vRrbcVeN1mpbnFwq432zo112+E91Ws9t5Q3Qi3O5q9sU0zB76pxbBtVjRMOLul3diS7m+tdJiJdJi32VIqi9ujrc1NeOmd3Woy80rgDlXgR0TtMKxu9Fa3Vpl2AI9U/cACYl1anYralUetjuLxYJNVLuygU73uBjOxLhaYPaKzqXbfq1U650Ih7btBijIHsnRZmauYVYqlaqvRykplXRDaZiHC9mhOFzstai0WE+Ul2yQtLotqos5kT0SttW5PaVBa2ah0UHRXUnsfdkK7ok+F91WRkx356Q2d7TMR1jMzOtdpL2Sub2whqlZU70oXN7T7w7HT3qWohcYDNGhUrc600JuwCsTLQJKqPLB2ZAWEpop1AhZkMJCc0pfqm1bMZSzu2TqZhW0WlhjYxfoBW3O02x/FVvrsrZ2wW1XBr9VlnB76qr11rd4G4d5evOs4LtUxVR121goLiEpT67TaedFba2E4mUl2mtXGljDor1aq5+ZBgazfqu4PCy00qo5yADZbbWw2qddondcMLHQtDxEa0ehVK23RzFJeYkF1qrqnlIVoLd6dTPuz4WRMm3TnoGfmF7mS9xhu/VyYa5vfiPuyFXWnwwNKaRto9zZCN/Ne8+hgJ55ujYezBLqdigzVtOv3hY2IjAfX7LmC6Vcn42Q2zWd4kZkHbqReh+RtVmQz9eHDiT2IqngHZEprUKz1bIuyKyj2QjSbTi7GldHwwpgGGTHDFsPEkvGwxS7rW+Rq/xCNTMfDcFU1vMxe+nZBi1xkEIEthvdu1Rts2Bg6gCWnU2LCrANTRnwoHwY0Ay0U96HFfKfpPZXyUqF8J+XlQvkuyicK5bsprxTKT6N8slC+h/Kpar1TLfZ+2o727GQoktnEA+kANavhdigj8NKB+6uTySjuj1uHcaogpa2mXamIkWaybZL3oq1VbLPm/ft0Aau+qvA3JtPhcybjWX9Ec2cZC3OLLqsU/LNbbPhrdeUwb70dT2dDlp7AWm2qCk1XW91ua5Ocvzk5SuLq0TSZTJEH20IF20eFqXZaESut3iHvhfeHsvRQPUo+/pp21a4wFGxhFRWnXMLSk5RJqvUGuYVNsajSZJEpxvcmt5TNnxaXG5hjMRUntln1k+nmcDoVTrLlpNNP6mkGU4SJZGvrii77tX6ybw2LX2U7BmRyTffU+NiFUWo31wGZs+1QUi/alsRv18SlDsLLh5Pp7PhiCnCUsO3sgm7FmBSAm6T9eykgW7t+o39lcjRbnw4HlkjJrq+C6HMGfbvcgrxNuz+bxdMxVWDV27pUMNZqtD2d2KPZpBMnw+dAOhORsqOSyfjwspwvzbrTo/Gu00O/Vo/ERRKaBh+dbZWMF82ujOIodmNnDjtRyxnKLmcGEq+KmlmlWeuwcpll2WGCbrjZZqfVg0EpJYMwZ3Emyas2HrJeum1gQfq7F+00ZmPawFI/gHSVA48dE49W8xZbFZzurpKuFam/iraJrSEfaIPq5AiGpq7dwsO1Q+xucoLKVlf0slQgVVZSZ4+S2XDvCsWHpdKuVHFLt0N7XglseTXsnrceAlKCTmRnUS0vQA4sUf2BsNdtYW5UQHMAlI5Jrm+28fwpSQ04VhrtSTKUyWVjAeQYN5VVxL5lz0iKdn4qRppNh7NTpQ3YuNRWF0Xkpg/slNrxMXigjFmydGsneTmdOmyCdcDkjEfZ2+roxK2yM5MG1UZLXdcSfnYvddgpl7faOLZhT08cvc5Ws1vXM9YCq6xWFzdHFWCx2KyHby84S3X4nfYL7FzHkQSboF2ayhos9YQeGxdlb7NFKADHlbxv87YioNWGOGjkS7YCV0PQyrakfv0CWPjQ6jZz+tdhL9VwNkmXqTsX3p82O0Fxu2UPayvk7eA2dIJPZmWWIeVTtotUm07bIsfLbWl9pjvtj+082xHewXbMIaLbY/9gYxYBgWZY3sy7NvHWiDaQ+vaks9ZpZeeIoABK95FSAWZ3jHIBkm0ZC+2taMPCHLHFHJLSWspBltRyDsgonZATuoU5Sis5JKV0MgdZSogpBWSUTltGmUSQUmJn5oApvevmoJbk9XOwjOoN2pODOqI3FmEpzZuKQEvy5iIoo3gLNq9eRWt1fm7FsyRkU2liCnWd3sYhooWvmUNuD/sJy9rO+GmiKtWt1XqVCiOk04JXbxaLvtgr66/TQtZdVlUSvDlI2badgy1YU5+VF6N2x+4TS+uoJ+suAyw71AxwwuZ0gbBS7epYmQd2z4tNOXkMuMEBCvCpaHc6GY1qw6k1LzDt1tjn2BWQsFpt2xbbNBNrEA+wbLOY+vC+NhukNbRVKIjLpSVvfYutyfMT4kx0Rn7ReKMJfpNm/epkhD/ilaZm2XgX+Mff4Z+gzz8l67LQ+DIl7wr/+B1AYOeAh/gn2OefklKKZpNDGuxK3jzLeIfOdINguxKE7f7U+MGuFAVHMwJ7V8n4hQbBZn82HV423sLBU55C2Tt4ylNJ/IOn3EkSHDxVgKWDpwqwfPBUAS60+1Psen08iGnnXzgaDsyDBS5WjG9PH1Re6o+OYtp4R3oSeaTx1xBrs38QGy/Y6x8MR1fA9xLZ8ckIZ7Nkdzo8nFEKBBeeh32aHB3E0+Hu2vDC0ZS5YI93J26DnqIAZDwCFRptJa/dzDeNDvu7rIK5tkQucDvE6mnZIyTiDqnXILAm2iADLFLA8hKL0DxeGfqvClFsXe0fJmh/3oQFq6dVj6SXFvx2yMlRWA8A9LKSePxEaCVbBsRg18kuFOi3U7kX2eJEwL8cDPDByCg/kQqZycmw6iwCXZteFB9Aarh7Ph5e2J/NIREalCFlKHWOEsPdOZScDmcV3VnW4v5MJ+qvvTYHU6pM9c62orjR+NV2JPBARkWqAyUtu7jqAnEjcawXW51ak3SpstaR+uVaU63giebWpgxthXOAxBZPslGLaE7VbHpaDgikZzhHS3pdpaJnkuurNr2BQ5mkN0a2fFNnW8MxN4tFIL0lOq/R9Vur0XlJb2OSBX57tapBzTsi6+M9YoPgIukjnTf1qFanKfw9WoRC+hg2VpHfY2tdPXo/bq1RkXE8fnO9I37FEyJ0lvSJHHKk/89bwxUnfdKGTT9/w/b75K4tf8G9Nv3Ctk2/SA5upF/cWFuV8pe02pp+aaer6Ze1bfuntM81RU5PbWC3SO8kFT7v6nQbUr6bVMpPq6x2tknvqaxuS/nppML3M7YtnWduwxDpl682zsv8fAWp4H0lqeB9VeXchozjq6tn9UD6NdU1XVBfW21ruVLd6gjeKj6GlKtYVUlra5Z+SExR+FkjvZN0nfQu0g26lf7qpEL/7IYdD72tCz+NjdZZ0Rv8aXWMmnU8GNLW2fbTn0HaPtt+htC592z7mU8h7ZxtP+Vu0qhxdlPadYlfC/4W26nMy7Z4VaTnSYWP+zbPbQr8/mZD/cEHmlvnuqRfx84jfH09aUT6DdsInPTBdtQVeI9U4M/qnOtIud9pb0i609lalXnfjXDHSQddy0fcbepJaY9pkvm7sE2EjnR/29YPt+24n719TvXl4nan2yEdkd5JehBFWHBjxqRSnpDeRXpIejfpN5I+jXRKeg9pQvp00hmpyOmI9Jmkl6II22/MQ6RC7zKp0LtCKvSeQyr0/hWp0PsmUqH3r0mF3jeTCr1/Qyr0nutF0Z1C8Fu86rZy+DzJCMlvlYzQfL5khOi3SUaovkAyQvbbJSN0XygZIfwdkhHKLyKjrH6nZITyiyUjlL9LMkL5JZIRyt8tGaH8UskI5e+RjFB+mWSE8vdKRii/nIzy/H2SEcqvkIxQ/n7JCOVXSkYo/4BkhPKrJCOUf1AyQvnVkhHKPyQZofwaMncJ5R+WjFB+rWSE8o9IRii/TjJC+f+TjFB+vWSE8o9KRij/mGSE8o9LRii/gczdQvknJCOU3ygZofyTkhHKPyUZofxvJSOU3yQZofzTkhHKb5aMUP4ZyQjlt5B5mlD+WckI5bdKRij/nGSE8tskI5R/XjJC+e2SEcq/IBmh/A7JCOVflIxQ/iUy9wjlX5aMUH6nZITyr0hGKL9LMkL5VyUjlN8tGaH8a5IRyu+RjFD+dckI5feSebpQ/g3JCOX3SUYo/6ZkhPL7JSOUf0syQvkDkhHKvy0ZofxByQjl35GMUP4QmWcI5d+VjFD+sGSE8u9JRij/vmSE8h9IRih/RDJC+Q8lI5Q/Khmh/EeSEcp/TEZN1J9IRih/TDJC+U8lI5Q/Lhmh/GeSEcp/Lhmh/BeSEcqfkIxQ/kvJCOW/8o5HqXDRZmzX5m7jpa6aL87sZv/wUJwlz9+bTg7EvZtN+NdfHU12jOftXJnFiQk8Gx4zfsDV6b6Ux+LZ4ccN+rO+4i6aYHs4iCfG91Oc5K6t6UiQ2v1kFkeTo+kuJPxkineHgyLu4HS3KaEcOgTEobwq3mtl8GyiJsZbmgnj+JTJfn8weSgh6+/jthBz2MfHxGsdxLP+cESuFDPeRBwRvNdLxCRiYmPkF2bxgUZVbdXipeEOB2PYWObQKXKx3bpnAcY/8f+2y128synCIL+8MxWaY3qmdEKZMf6tOknXGevGm2cZfyLe7ExOB8GlYTLcQXCeKZG4O6rTppxwCkjMnrcA7XGyN5kemGebxaHO2Is8s6S57j6u+lhYB7TcHwPkxFOXKoFcZyG4l3i/TO2iuZ5y8TrmBnPCQvYnR6NBVfjb7I8BwM8t0wlHJxrD5koiTcic3FPZKqab0pd65tShjHRNq7DE5nR8MHn2sEoPbeLkyHjRO3NJFenFnrmBmPaF4ZjjlfR8fjiY7cPZjXPQDevJLpqbdqUnnGU5+tysQpHCvnerOMWbzFsNZTV++WJ8xRwabw9oYzhOCTDTAqkNL8RwGnBqoWRd6W8yJSk4n7nMBQglaA/tmP2gf3mYdPsXYMKTbFMkiN6nK03D7LbzG3f3+3K8iKcJGF5W0o7qNRm+n0i+dSmeEuSNu33m2rzL94IRvCbmpwLv5EhjwNvQkO4XzdJefzTaISonfCXm0DtxMEyjctnorretNJC4gwZxx2Upvs7zyhdGVw73E/Ydb2GQ3VMl7Dre4g7n24vfeDQRQ/AGz7tuD7qZMF/hecv7qOwUUhdXJ5fBeY3nrcyyEDJH6qk7QZbNKQePBxlXp0eTC3LvoCjdSTWVR2tvL4lnWCez7J05YBzQsvRf63k3DDimXYoHDeX/TYF3Y80Ccjk7GbnRenOj9fPRspznRsvCmhtt+fhoF64e7aIbFTTmRrvk4IXRLv8LRnvi+GhXBnZwDeWf0Z7cKPBg/NIOsdhBYgYcvq29dSf1YD/F4wBRJkSZEWYR5I2SnGlCGNiVNB8MWUAjSGFwDmzbcyydRVNedeI0/hI20J5KkfJDukBZSFJ3PxnV2Wz0JSlVkl1IUVrEZE6mcaNwx4mF3BtOk1kmF+kLhorlhXWZPDrenRwc9BnCqt198rDEjrEriEEzBplA1QL6v5p4f3DJ2eaFq+3QooLUyETxzHy2RNw2Uxc2sinhGyToIcG0O9k3nf5gFi65S7VVzBBSVPBmf8q0OdkXGbXxIdUzaSmFZjx7aAK6GyHiOmA+nkOgin+ycV5tKWRj53YIKXmiCol50POiKwc7k5Ejn2iBftnvbT4lkggBnyCObCMRvMdrCIutiMlMyaKn6jP4ProBhUNguJoECpDeejyWzQ8Jub4mRcreURKvoQXr4pQwjitjDdV4OBLDvb3WeHSlg9Av9UeKHdSs5tcPDo5mMjrdmyxdf54uBWcM/UqSxLP6AC6N76Fr0yE4b/c8z1WEgK5AoC9FUWjssObrAxxU174T74Fy0damxFlaWgmivyiSldH3BSLo76Ata2nG4CZHh/UBvq0JdIbIv4s1ZCVN4d0eHoNsHwyJ4ns8s5AWI6X+Po8oapGUn67p+e4iR/3hqtMOH6Z+23WKIvxvMFqIQIRdH/zvMCMGUHs4JByJI7obPFx9dz8++BzcrI3QvC5GjShSm9A3nq4JN1c1Esf1RTVs22chPlGq9aa8QKIQRJgw3B8oO82ZSZ5ePuDNTW2O157iOxh/YSaF7QwDzzkfo06SP2PDcZOAHrKf4AcAqoonstkfH7EvX4niEas5xgCY0jBZnUwHzim6BkI5OdqRsOgOe5l07ka+kPM2r9YfQa3n6kIqRLlnUoZJGaPm7Zg+DM8RBlCWnugG9GNivFhAf3kPp/ycVfhEKxERjvklO/6NPk49oVqZmHY/MwIJ50d2TXdMKI+GOLvTK2IpupPIjQU0AXDG9xaw2oeTcTx2C2/xaLw3kntsuY4sklwaJltplUpm2bJdTdtv9jlTpOZyN4Vaqt7h0c5omOxDTDoWdruTbtw/aOTsSSf+8U6COucl2RBSfY9mMuzciAmp1l70EJxilhyy2D4c9jkW5s3Ttelu3/kvosyO0h9FhRlJm1jS9gmU8U/NZGHcJJygW3p0UK+CfSKYssceyTmjlJ8hyiTZGWIhOZzG/QEYi8n+5CFkzelnNUaCAzHqoC9ZGttsZbjXy9qJK5ywjV1p5bLLnLziMqe6ci7Rzbk+3pMTorK6bbzBkd0q6NdHQWcTqajFl4a76VOM9DJHgm76bsSrEgbVwLCvMO53JKxPmd1CGnbSowj7kWtcrZ7v6UHbO9YJzpMUOC+j825PZSxIrT5gKod7Q9wElJ5WluYnWcMtxI932Xb+RlcImKXsXt9wpZfe/3mSz2p8KaW3gAGXUIwjxSy5YoZcdoAUf8G+nyS36BhYxeG/wP4gDhtLgW0abuglG7VcnXOlZm+25XbRvcLyriJgx5C1JKBar/XSN4JXo1fQUZwoUVDf38nASuUziDIHVUVNRBebfY7IKkPFMuVmZZt4vl59GC44O/aRoxed10sEX9Ie9yyKELibTn1cUAo5d0toA8pMp1gtMNInpyCYqLOulyIEntuQ7bXv6m3fDcC3LSMO6lgGDPxKcrS3x50YFmMoXp6yxqLc5TQwEw9lRqTSBMmlC2Jn9FTH/FOs13TdfJZVRKl1NBPPVgw/9Zg4pgMPUrwZyotgrE0IfUT6Ggy7dTEBvIQnVNlJJqOjWez8QYzcbnFUf++ZE9/IDmGP/yuO++1117vx62u9Zhi6i8pK43zl/oiM19CjjzwRSq3CPUbPpcbHnGcGIBgfHUSYDuYkMRwPnLkgmpFYaCQrAs/4whEGcupKi8oiU7p0KHZzOjbPMMsFSm7Nn7DUXGklsbVCw4FO5lQd5NQ6WwsapadpWPUsCfpMvYGgjZEE4SHMEjOoT/SXDAZv7iSAEyYbsjrVkWS7IgK5mLPaLe/zSLjF67TOCcR3j92DcG3NPrQrcVfR6kiu7B5ULWAS2X6UXmHTtH1Zk5/6Em6nTPdZQWDSGasoEdwnAnFNEmY0NSSUfZl3W+Uup7HBrBwEDkAXgcwwQ7gvrPXOb4Qs7o16o9ZrrfVsNdeGvfT3BoyQhX+/q5GGfmW6m3HBqQ8hVsYXkCIRLzaDQtEfjvHjO2rzKQZ2/2lwlqTt0XQIh95gmByO+ld0XayIB69FXQbw3x4dEaRxvR1qAUnSDO+eqAgNLtqBtrWuE4/6HJf3bYPSoQJtg4PYRudo4qaaLJ5WDb/Juk2lzaPRbCi9x9O1YTwabNupYIJ2WVvIHmXwirf2fnXCAOVks9mX0J0xS6l+uEdMYrtJfGegA2uPyZVSk1zOjPWCtOnNPThYzDoIx4NDOVIihthlZU+FDfzbw3Tyd7iKt5y8zDdB1pgMZmPUllaMpoBuVzTNQLG4IvmInNTja9drtYY+CMOMqi6bHGTfEKXPsiYSgKhAjkRWnFwwO1msYptJvdWwoa+o53vbHNrxMLQEoHT8Sr+4cMkV6L6qODJ0CZPIUqC7sLHaOm/NGKuy4uTLVt+xP8op9Kpr2c82Q72XR9/JeZXx2O3TWFAiH7MrFvt2t+KFtl3xHleq+gTEz54+Btwn9lJwSQpZVXmzcl9WxT58X161aElmtUtVboXDTo8rvfqWrLjlzKacECvDXNh3Cyta0nPKvN6cXCPXW6ts1vU54Cktuivn01o4n3Z+htUe5rxc1wi7qGNPHt9hBoBcz8yz8+eAGyygXam5l5w3WoB7GHeTLSlXbjO9uSWN9eL6lmprs41eKPxWZSUdzW1Xi9743kyk/zr0Ia9FhUf9nViiVN6hxZRjzOuJOeRIm3Ff4uoScpKFEsmuYEp2OZpsGXpuYfrpcgyuSYGDje4dntxvCDny/mzickEK1U7e4JvSbBL1D2yR3V2toNVeMVAzohGo9QLbawpeG17GBLEvWpqRxil0n8J3X9qbxtYvWDHL7vCxObkUOzd4MhqcUxtICIUNYi0z/n4Bd2NIKHt6pc61Ak0SvUWRnuo6KluuHjt84N3GI5GuMq2hw4sY1bFtRn97eVcj6pwJl3DdxS2NIZbODwcXYvYmVjfW0yf4pG3pMhwMCRfKAEqzIbZ51j84rCeTZ9zDZS+k8WumIAplBiXI8aAi8flgl1NCWihJRbqcy7VQflDJHJrzG/VuuNqqdGTZe/rSTpaRXwu3e/KSvKW/awwisAReYme9aIkElUZ7Qy7M5bGbrAxynv68xf3QzUUfHHYTTQZoIhYCNjF9fqo/5klLfoTNQZ0itIptMG+0usWmS+rJkmDZWSM1h+0klGjB/BKrQMSxdThABFvj4eVuKjqE4XOW46B8KK0RXJCJsNRE6gQsx+x+/g/q2VtmQFJ73fC0w/1+EpsF42vGAu85xPFI322NTFAoWoSnz0QGJ1B2Ugt6xtiqQFlSC3rmMGnbc7SoNKvhTd48n+/0R7ma6nh/yjfPLQKd7po3+d4PuO3+V9THqUhYR2Imb/PM/7JOFPvhonmqy1oO4mESTfZmbp+PpAo23uxxwzIZW1E61n4G2NpwNEpxfoiy9bdTyI8AaV2yB2dJZVWmdZ+1HHSRBvxzDa/F2txgfyV178j/pIdMruHbPd9n0ReqckfxeT5X8DKtRFPxsrYzUt8dHHMB3+VPns1pOTpi9aJQ01htoDo1Qv+P/CS+tDmZjDkVNIajK2m/H8Nh2ydaij1yUkCeD3I94cAFYWjF69KKTA4K/vEU7A4bWcUbsgoNN+QVP5FWyHkjB78xBRf44RRk2aD+F7xEgQOAgkLwzHzAToPCLGJa89uFGmFYYB8swCxTAv2dAlQ4EtiHCmfUdh+DlpiXe96vetfkcDVDhct3ozQRK9jGYY1n/gK202Lb7l9EOfBnWxLV4wop8D6TaoB6zLkKfNQzz4GaQufX1b8ilzUoBsG+qViR68w3W3Bm9Asa+MeeeaWL3s2r70u9ozTSBfViJ6/nIpQtZOthqv8qDaYhJjEQH3FbTsOu8nO6qL8zcEg6938oJzLLmq3+KGKs3slI/yglFmce+go82/vc6nyjf8qpiKRr8V5iXhB4L/LnwMg3Mc8NvO/03ahFCm/yzDfmRWtLZH7YvZ0wBc5S8/41V2qYljTe1okTzqPhWCZGzhUvSsNzRINsQx3gd8+zhjHjLkucjcQ8P/BeTAiJWGtlGq8e7ThCP5MF7SKJ/JmPed5nvTkQwcCPe94/qm1P3YdJWrBDOEwbNGR7N2Xzq/5BvqW9wzf/rDfYEUPAIbk5zdvGdXaB/oVp/3BfNgL8omVzyzGQRTybQdOHtMvm1uMwi3puxlqsjBh84cdnTzaPvQbYNuhmNdusHLkaM19oHncV0CJvCbzKrmZuMY9P87ZqW4qFu7jbzBPmIRbtPP5Mev04Nk/OS7b660VCTfY7c2i+IM3bqm9QcqIkr/LMF6YFW/eg06Sug5pXe+bfqeQJZAz7Y0JTBweTcUPiXTihEtf5N3O1eFSXZ0d9TtM5xnNZhRlKbcjSjWUcrLAi1rcUsezmKvIqojyviIJVkncSgL+1CI5wRViCD8TTCVXPL1Y1j+wTaPv8emq+7RqVTgfMjIj+1bXc0akbZC6Zby9WV+V59GXzwiIs2/eeY77DY5PHjKXEx+ZHLWZmJ94PRp/x2LviO8y7fXGMKLeJGyBPJeSZ303BDeRD+fc4V19uMPUS5Poztk/ljjXn/LI/nwepH/NO3/ylL7O0xZbd0HBaysei+S1PatggR8NdNuFjtS8OZpMLxFAGrXGru4bDixwTZsX7bS+t4KJzruaDXnZRb94XmD/zxJQItQ8E5vdzxRJQgnn3nq+srQ4Hw7zb71dY1744ENBXchLHJdzoDzrdRpc6RPF6Pz5+o/3tQWKvj9zroA00A1m/sPDYaMFlrfZ/OdcRF9WmLdqcBX9F/k5pyWVtxVfSMrtmWM4KtvKrEuwTMYwVSS3oawi8Zo+YTmYFW/m1A9jDIKInY7PsnSoULULlgPMAvF0nqQXVJFtPWjZIS90NcwCLtCYwNaNv980vF/yFlh0Lw7rxKqBtuo7N4ZCYhcpuKpYtykai3ox7P7Rs7iiWLUrTgtQMmseaRxWKFuFeC2EVmcebR2cFW9mxZf2l8RPNY/KSrY72cHFyz+dJedHWP2AbWJBgfH4RYHG+LlYfKzF/7nlf5PK2ppcLpupiw3ceA1nEPel3PZ4cxHJH+c+ed1cRYHEu2J5ToGDdPQ+yePszVDq392sQstwK+z8YyNMMrABKOzlsxHsY3XxOmIDv8YoIHZmGYxgvyzFWJ7PZ5OAaVL73OM61CL08R8prhrLhHrIUWOho5Pcdx+lO8DSozVFeoeESXHIGm7CFIBOGq+vw++VgcdVVwvP8nYn4PIxvQ/0XYD/sYJbbDPxaB5YhZsAfcUAdUwZ9nYMy9ZwmWAayoH7MAenKqjTD/nEHs11l4Dc4sHSVAX/CAbWrDPpGB4109i0Y61wUyk/6+2yA1sHIZDIzjzaPvBbcKk47kZ+vigkyq4YdwhVs5bO1LONi/4CHi8WyRRkpqN0fyE4EykGxbFHoEFCVmcAw6RI2a+ayAs8e2Z8Db5grWra1NfMhT4sbGduOIB38rq3C1KtvlFd82FYQqMFbPGt+zxatg0P59225zWaJFxENnyOtzpq/ngNr/3VCSwksfdJWFRm3VTXz71zV/nA0cE3XpxP5udrf2BrHlk4h0H8/B7VKAPhTFqxklH4Uj/YQzqctPHUHaGIa5rs4ygHs4OxOk/gBmfrLTPp3W7D+Prlpfs2WHM9upujpPf7BcMygY/OBkvl1cQHSwnvnWigX6AgHn5lpmz/05Tges0Vdgo7ySb/cFOM8eK/gziEao/jr/QMWWn8qq++jPtrlbrflpK4HhO+U1WovmiO5Z8kqXpxXrMLEhdxEYjW/y8tJqRvyCc/8QAHWpRW35q8qgGr5BfoPegQ9YVqx7sMpzbHaOBrx9FIc6ZUSTP8cBxgim+r2KH6HQEwOkt9gr5ifz3klnogMmGvzdo+VlF42d6kyXfOLha4krDU5EhX4pSLmZp8C/6nB+mWPQlpTGME7Jb7EnZSW2aCZ91FfrlDfVegg0ufHERo4q+iTZbFAv5OzWs9JJ+btgfeJvEqnAglpUNO8OzD/3bPXTOrFv9j3PuDKEjXFkbJ3US/xvT9JZSNxCWiYl/vm73JYSKwAyH/JIQ1GqiEF8xqfa9wMrq3ZtdnC/2sOpb2F/UMOq6KSTJaymphX+N7/zOu6bH3ZzcurffO/ClUME3tu/qvfz4LhRCV87z/7B6gHHqf4lgnG1XtuQBjh2DerTpr/7Cl0C31xlmTZ/DfmRU8813iH91aPLfphq7dZuXBgXuqbD/tjFsGx14Fv8czfwvwg5up292KDHfAI19S8NjDf6o9wh1HcS8P4IcX9cIAYlDnn5bImPa6UnPdeRWAytGyr+kGuugfxpI0K7bDUWPeEJxOJuCq5DwXm36Zt6SYhHClL7h9L5u/8QyIh4nRG0huBh+FYVc+8sGx+gMvnAYFxeblIMAEJx0SizPf4Obhqv4+yyEWeBdaseKKjnRnXAa76A775Xldf7e9yGqtAMGEKzVt8tMnW1MeHR7PsCvjlgfkhVyEOAheerNLXOMjG5BL2T3Xu/YQw/WFyXuERu8ZFmRRE8qPIT1YPMnJsJK2xRdPmoPyNI7cZz/oDkdMrAvMCBwsviYDNywLv2x2kjU/CvnRlMx4f2a3iNYH3Ha5SmRfVajLBql6vDsz3BKohnclDqbHHo/TNW30FYwmPDsZzNT9na2hg9TExf+Wbt1mgRT8vG6CCf54gqFv9GDs516AVe0N9vSGz9F+uqm+zHjnFHXIWTZH+3icQ5p4ZftBjtIkgRocxhn/anIjarZhvk63g4vDwkGmVaiT3qkDf2WHmP+CZ/+EnAu4KRAl/yDP/swAjwsYGTTzLguIDUTkJd7pbme8IBkMJuBzAIEKvD9g7/gMXKnLW7EwmM4qfcsVUWrT6NHfw2qqhNfI+Qofxj775TFrlCOpm+k+++U8p3DZp948SbPQ/++Zv0aA2i7E2lGUkqvFPVnrEE8Lx0cEaxgZ9Na8LzP+w9pwKGWpa8frAfAuxOnZZlsIJzVj36Kv7+l2aMTYCqqfzkq1eldVqN8YwC8SduQpokauxxqmZZl38Lfvk5vqroRY9TDDAdWzlVJ82Y9tum4dYtMbBkPE0hiSg3E7iSrZ6c4ZSd1Gji2wmIDyiWLYorR0W6NwnnZ5knngcZlHvY+Ghg0VPFQ/2866GWvT7iW4MuHXQTx/Rn/lS88XHQBbxWVYIEVEVYAmbi/cl8yCLh94RftNJSMRF+nLzpfMQi7YzUgWRmHpi/tHzvqxQthi79tG66ADhf/OUvGjrB3uoGZqfXCS+pXPIVCVXAS0yllL7nqwxB55h48qKFuGSHcsqUrd6kbYH+yGJm7JO/8nzXuQhOdVN0QLqXuIl6gXlX4x4wPwwe5Acu6IDltY+omFSX+vwiNYkhEp2zI95tseuCCeJttclA8GfdohMFPO0i/MY6a7w9exuuzkM7iHys9y8cl+sjuU0HqeLa4V91FLJjP0LfPMOr++e67zQN7+W7rI2Di3ghs7Atttjy+Y93pi2hAIp6rr/O8/8ukaZR8eeK37KM+9NK8TZEXuYIsDlb6R1uXTrIkVGIgif9sz7rsaoYAyJErOLsaeb31QElEMN2oPmD1QWffyiKVdbIkd3XyeHu8oYH1gmQHb0j9mzQBWadIncZD7Omj/NCcjlmFB4GAIf9y7GV4gRXriAZN8bELC4NMF7DWX3au9PCSIj77/0hFPZb4kf7a/Ge5MpOz0hSBngg95/cJcoDZyQxLzI9/6jN2O6JaQokjdvCMx/YkJgdL/FFQvrFEbxeybYReKr5GHk2/Bhkll+Jnkh4bedeKAEPhjgWBIt3d+MMcAKemMJPwmlYJ5llmHPaRKb0vf5yZA9gqNjelXR7o/jkQz31X5/l5FoiG6ju9mQ5fHBEleuEjPsYHHMh0rmpwtIDfcA483+JUEBot2/q4TnkUKqWJ2jA0Ymrvshzpv52axOjsurVyJ8BGo+6hNDTWsERmVi3l3y3l6Esim+zzO/kIE6MdEKdFmV8U0l7i7SGmFFL9QS856S+cUM3mWWx01MBYx/PINGu5NDMN9X8v6CrYZd+goqcpnLUPNJX59URHpXxaLnYuaQ3Uw7fJtvvivYQceYlu2UEkwOhMn/7h+rAfz6MlsoV1isT2szwstsLAOpZQK+JZhiNlL0c6j7inleIDZ5srcXMYNHiUjqUyXz731YoF261AT8N775DQdOfS4Bf8Y37+MIy84siJaK+XDJ/CZ8FO7E6f79PhrEho7z+lbf/BZy4DSJY7aHM2E+WjJ/4Fs9RZtUpRnPuz3zEX9XbFDHRtRzY/ixkvljlFCh1klYMX/iDya7BPeJ4Rdp/3HJ/Cm0uYpiEoovTbg39L1PWG+nAtlL1ufhxtAK569UNSuz2XS4Q8gK161k/lpHofOpQ/l0yfxH3PMDHLPsYyXfbP4hA7mPkzzXM/8NiaBPXMcl9MQ8Gm47gkG81z8azeYqGPmD5iXEBgsw/q97IbcJ5qUBvlEkXDNh9qcZIgLMkMj5e4MdZ5sxCGWc8f4whOV4IO5tlem+gP/GLX2TSLoYokXv+xyKjipdda8M9FdotWmfSWSyzfPK5vuDzjV58hdnwxmSXjHYGvaH7DbXT7A4oMhqI9RhgrQ8HGf2Z9mUUmj/cgFaTqHDcUM3EPWfqVhIK7gumatYLHDnUKRf43fCNfsq0KRfPfS2kV5+5vKDPm7EIUUE6B3EmLrGRL5pZHyOiirWYFOgoiaMzCzLg23omHZlK1KC3da6vM8ReC8F+pv2S3XBVtPlSg5Nir0MWtZvr6+1Oufte6IFLa9WquccYFEB+txzidFyaNFzkD1G+QuoOfG2IS4kYVzPS3SvyQHF32ajOWsZNhPIyErAokITCy0Pk5ZtZssLtt+a29znzog+6o7NJhgib2PYAHVLJOsX3ruKtch/EPQh3/PmK0NqrkDqoq69/PVtarBECUEr0Ph9aByrDamCSDBm4lXLYQJSOY5sH5lZthgfQS+35yDmCZv1SB5cIW9z/KWkJ5+wXu/Ip+HzB4t+Dqw3a/bpYZC+uUwfPpbss8W8VdkC3DPH9CcW8n31AtS+J1ycB6ZvCZfmwdmjw+XtelRfVVW37zlrla68OVtJH4CezJ5jnso+2y1dKRO942M+PY+jvV+FdCZHsnxcm9Z1V6Fdm9z1q61ODYB0mInwBgd0LTP4jQ6uPWbQmxzUdpCBb9YPLTa7PfnaVtjp1kPp7xYrymprSx5LF2bp1s16/uL2NnlWmxZul5pMkHdIVVZ6hD48zd7HPlKL6TvUR2lJ2ejWW03p/tH5A9bHaK17S/vYxvHXso+XR4N5R09MdVeMXebv5KvkjwurpIgSUs9SyRYDUJYvnkW2XgQb0IPGr5KzPgsNC7Q/Du25upAKIcqq1siUeX9J6Lml3BWqREjYnomHFL2LnOQnIPmweCFIQn44gKv8TfpVpGULAb1A9pNXkXU4IQg5yQQgZtKvqKPTdh2AViD1KUhdVR9SmZM5dBXCmUWtz+IDdeqM7x5tmtWG/QMFjljRq8o7+9uss0J9SGXemQAJBqY9pXjsC+P+gcjdPnD+NBjEELDhTWZM5zWYEQUnqoAf8/e+KV0iaKSFf/BN+eAowXuR0md9s2BJdzN035tJvhGPL7D1YmMtwnZKwecsM8M7ZyPIazczkmwYE/y2mjCXwNSsC7VNfBHj14phniwyJFKzT1q79nuKnsMrhom89Pc3c/J3iJagixsJOYiY+3Xlo8KFV1KdeM/45TEyspsB7OOkwSvr4DmTg51hvIbHJW5D04o32C02b2YNnxeYUvHHH+XqtfFMKTfWpmisvda2/r0H9pNepH8SowcbMF9vboSdOtal3mhYm2Irgrke8udexi+lQ3CL8YWB7oLbWmBLDEbxhf7uFbe7d2PurEWFXo13MEezJsJxD9XHdvhE25B1f2RpQfj4S9HSoc6Ra16XtuWZTOqLArNQFNDi4VReIXKqVFqJeXFglopcLs/xYsF+IOEqm8d2zWDdFl7l2d9j2RLKPte4KwzIrxn1m2wqdhIv/S0hImY7aFbDnvzAD8B86/YxRtFnlqucxbS44nlDd/yVH8o66EsCz68XwPNEoDETnl4aGIkLILfPgdwVTOPLq26WhXobBn7xKeWvBAi/nnXXQgkm4GjYr+66z/ca/aElqSfD7oU1VMn+0MavdNkEN8IaWgWKfIw4/Us2Uo1Hs8UWKT1lf+FG4O4RvgbSV93hA2z3IWaW7FazWumGZO27ddnAKPi2WW6w5n5+ZfPbHFFQIwW5eH3T6l1wXksyHYQgs9C+Fc1ipSobK52YKBTfrKvTms9vja3fiSNQYC8KGzgmWuu8dHJlWBVJOe+32BlXwpxFJ1OJq6DnPl62ZmB9hkbi2ZJ1Q1TJdFFNWfWWQx8nYj0Ut6eJm+i+xG869Wr2N23cFBb7lAGy/g4dyEmi2N8QDO3glSzE4a7yU7KcJYT+vXKibMeDlsKoZQl27YMv1s/iPnoGcAkTx0Z5RODpgO2S6fRk9eE9zF2Ameu697fDqNqp6ycTTbUtE+65Lwn61UjMa3C2sl3JcEoS+yEtn410fhbUa75XQIvt+7sbClxaF/O8HCn4RHS+ro7xyrmW/GCC3MnOViSQU6sV/SbmaY5d8oVulduZupw+iKSG4zz8jzG1v4RIK2toXFrJbkai1rhCfFK+HP6wb6eZ6EMHRE7WnMqK92V6G8TRhDAGd0QWrYXazhHhGHtv+UbM7pC9Cm9JpJ++j5Xfs8RNPY9TKq3mDUxJPVirHFvNvOBlxwy2sl7DfroysDyM7UnHPzEiq2TejFFJ5LCI9S2bE9dggQ1ZIlBZgIXjMwN8S2CWB/Ogt6JX8yCRKEbmbWx3g8lDYzZbHMKsszI6mCCLeLx7JYcuiHgQ83TWsnHrslmUX0YQcWjAdGuvQT06t1TLdySpsAPz5hkQnjyp1bGasioD4jBOXKl4vEyAKcRXH+zerZYap2AjrFBNrhRdSxom/Xy+aegXLr2OfigWD2MezbfVxlbjqRSrnbSw7pv2q/egmPC+LJ//9F8w01C2Xx7KvukxWzR+B2pkKxLzrsDjji/fREsJE4tjK188OwDZGVAEXM4oh0rFXxzmPXQBm65h38pAc28hUNusovAUImCr6uYhbFzIqyLYZW4W0ABpIF4eThjtFg4kmrLBJQkgyosZb9vu8NFVV5XVxsDfw8Y+xvjYFToa9hPzSxzjq5MxUSvo9kcVZUw24r7LIRcCEQ5BnIf8ww0VRTH+o3LOmlBntSLhHNYF1WzjNGeQ4sDjfsKGrzj3mVKOIwOyYywMPNLr7GOPQeQH+PIagnol05HfrKcQ+7RlSaI8o2vefSxffYdyIu8QdyGZe0mzYvldOxorebPsnWRJTfsWwS3CHXNqpmJPJ0FFcnoeti0Wz7y5ZM7oHDphvs8310HOdd+h95kNsaUcc9uJ1RxvTUf1cTN+iLMYoBvmSZtfCsyN8yBd8MzeTdqZXGV3JyJi5HtzBlq9UjnQo8ayuQUR2jlHBUrerVkx15F3Bt5tx1i1UijwevsxhHqq/ZfizBGUS4075rmNwNQz9CPm4dlJ+pHzcPDPqa/3qEw5IzAkqtrWVzNEstwefyywepjyiiPkFmAt1sdPpnwuvD/9ZSJ7xrkmbk7uZohl8u5bbd3Xw3Mk77eju0kCNtkuvgchEUoluHJUWVIX4yuy9cvTMpaHQl1f78EQbcC0fRPu+0f6m0z9bQiD9TeREjxaY0pXxT/E02rf36ttidlLPUOLLGZJGnsHthwPttDk+gC6fgZavZIBCVOnlxmlxHb0/oDja4pqEevI8oxYHQdNCVj4YsjWa++7/FNuDMl0d0tzfhrbDmbp43NbUXrIxZ3L+zbuj1mLhVAXiVC/mOHX5SG7e7G+tMe6RSuLMHHoLrFa5IL1BFfjF4aoq2x5lFcQfGHiT2oP29aoqwBOoTHurZAfHOmogMr5Gy2KXFxWQJxRQMzHDihoMG/Yiuzxkr90pGPz0kGLs5OyxmVFkZXSNcdXvsb4FuYxzzu5HRdQKsWlbdiRi1PcqN3++FI/kbvJ2D0ZZjc65G565NhmEfparsWyYDXIbRutWy0sbcofg2IH3bXB6i82nq1Xoo3Jbl/Hs2P8AjhiP2W1248QDo5TtJQ29AVXB8NK80WO91z0XCQIAQ4xg0Ndv1CNjtkWfV8GFXeRnplev8vEs7RwzS+xoOQqQn/VRc716+1PZlxwzFzRTzgXunxqA7LGdjbLE1tyWJ+LAPNsDVA9NXWTsasruWarGP5Djrmz+kB+9VXO+oxyi1bRhrZ3/R03PvYa/ia62J0cHkzw+na5OBCNhB9sXcEaAkPh5mFKCdWbupvYFC4WFbebo9o1mJDK/xtGIGUtyjFmhC74sDMPBx8wZr+0zVKZROKBVfWmzfZftuhN25zuhkmbWYEV0d6sEImCAwnQL4mYyD5HTMwr9XUs8pRd3YtE1jE6Vg7FFgziQTudO9udapjtKMnWP6E1VkwCWUQlDIK300/EQxAp1ATbaQtxXUIV3WwHzBxYTHh+SWU6IeEpvefykKgeJGQgO0TG7OAx5RO8Hu3sb3DRx/FDWcG/SqdqolMBuVT7gKB7w2TDYtbHzfihY0NACQcZc5+ScFIaMpnJvMiTCaG6WM/B6cwwK4mUtBfveLcpe9EcHbhLUjoFcEl/027+nm1HjHZVrQPGOJk3Is7suEWlv4NqMlGurGe3KG2B6JI0T2vUYIA7+znbSzlK23R0iDvYaKCC1ZpWuVrtE6sj7rrn2qCXDKMaj0ZExesCWcggnPoVsjg/p20dqgnkjxpweaFnUfn6SsdmCbBsbta5sJCCP9+UJaWPqJDMoVJBYPLo+QJzKr9AYaNNdRsbHsnkEOuWH/iyghNlLJW4fqMgVTpL3XwapboaHEHmKDH/wKm1SL6E2mN8M/rBzrwepkuhzklZPjHLRbbgZ8Y6SIdmf93PdF3dtXB0DUajjCNH1DGRmH/kKDfHpO4hRNnzPYpb2ZTamsjSkmQdLNAok1diPht4i9QRW7OfJCK4iCJguRA42yY7YteW/W05seUhODkzyREkHlQJAaEBNKkgmBEnh1SxZYcDPJuyc7tXjnDgb8R4rjtxf8bMYyZCCUVqVNGscrGWlbwtvA94E779J6YGqoaQ876FnHN8ia5L+OlZWAJxEuy5qCw7v3oIv8+iP2A4sflIYPI1Yx70liY7dCQ/j8CELg9ivJK4aWmewGRgRXTDTsxHA2/FzkS6SXNpFngnZ+nO0rK6kJiPBd4puprC7Yo5rVOb4mxYe8GCOTMHb6emuS4zWbAwnJYcSkq+JhOA5b3+kFKuW4n5p8C7Ybcwmf/MKenS3LQ9lwMS1uH8lPAfsrtZPgW/xlklQinQNc/cUrBcqQVMzGcC79YZeuAm9m8Dc5sUo0yKfxeY27NJqeiGFDFRd+xNdo+S1rgLsmvLkWc/m//nlzjopMOL8n2yolRrwvGfB96jLg2vsVn+VeA9enc0ZHoQ04p5jHYFFXnuUh8guMdei7LszAXqnwi8x/XntfZ5JfP4+Jr75ScD7wl92iIu6SQJFUuoZnh0+8RsAh1eOIrlOGFZx0LBpVUMrz+ejK+IUm6lILsj1yATYOw4Pia2a/yXJjUig6MkpWSR8XQflKccUqN3Zu/0xZeM9ZvEh/v3HsXTK4VY+9zRqtklAMZlca9t/xil125srWtI7DgFwy6FcyJHhebEuqWD+BAji8nbSam/uGQCqbUMJpnW+d7OiEWmURlnGVnEVt64xYgKFfLtJwu37LFCNMjdIC7h99jbOMztDHgnPrD7k70IRPIcgoBrMZiRE2EumhIdrYp3VsbxlkvERcKJ/WTWYVEzOYMIaBdsBnZwqI0XE0Bb8jFVzl+b+S0k1jRngQayukCic2lADvPzuSnjnkSzySGnKkiU20wuKiHP7w84wtnx+3MmbphUZRkS4JUWmUvmZDKPO86pvJL4VVVXxep00h/swhT3u3PYu/NyfxktZvA6NS9n+g7TfsyrSuwrqV63i2B75WteUTILmxBGFthnwUJvvGJXPrZJM/rMxmmFfKVC10BafkHJKw+FtjB0zTXzwpJ5rFCIVMkd8EUl80RVK/NCz1uQ3Go/wXraffjRcqXZHzk7vtjf3YUvUzJLiYSWI3xsW7OclrvC/1ebE2m5ihcEBwr+WrOijy8ZS9mc1KxTYwJhWlzLYgunbcft/pUR8gdwJplbSXJX/5KSd52Mx44kXycvLZnr96C0bU/tDOMGpV5H+1h67LNXWkezROQz3h2xBxGnk80dBblREdvMhdq+m1AfYotY+BE+wWhrPBD7uXvRvKbk3aKgTlwA3bqTKktiXl3ybpvGu9aYR/E3HsWoobtzWDS3az+rU3Rzn2MIUZQ1GLZDv0PrQsJoXJeI3N7mm0ccygHqyni3wuRizkB7ZPbJFC6eYz1jigl7FA767Iq8OK7be+IGLDGCx+yOhoc78uPEbLvpxBf4l/2u5D0O7pCkMysYQJn+12LCcRw78SGbDEKq2rmE2BPCa6DbY5+bjGNG6nhN9pDBF42zsAy7oOYWlpjXlbySfJ25Ir/zKHTN8f4CA2eq0o8LQrI23Nur7h9JhGwlJ4X58DzrCC8Yf2A/StmkmpWE16O+fl0olWzeaXbZluoMkrWFSjL8hV2hnlT01+4IpruPngiILhZ3CPyKoiGpjSGrcbq7f4UuvKXDq2HL10JeZ0AykycOrw1fkfGlC8NfGDOEdISQtHuELGbG6OSQmNeXvECKq9KfoJV2JNfWHprzFMqH14IudNJH6aqTxnd/XrTWI9Fdz2zXa6FEM70MtSbL0SeOSH7Dxqa8aVqpdN5QwiXuW6dCsBVoTso7gbAiO6hZa7Qqss96UVf+0Cc5v9KoV/SmU2+Sych3WTthFNkr6PKm3oMvFN9wLNo3XvJ2g9KSXF2mzz6W681tKArWiWarFvbW6mGjJl871E5WUvY6sQ2J5GwufW42M+4sP+UiPwtz/CwW+VlKO6yM7T0oavwwby5WjL+HGrgSp7i+XtZwf1NSN97Cn2XK8eXDKZab5W5Bb2XTOXAvJczbS+zY7g24hbybm8A9VnskVtyC3lEyy9KxjN5CXsUNyBgl0cVbkY4tnKsi+Sax6w+PkDWCFTY3yqPJ7JWA+4v1tih/pVr+3LB9omevWfXlQlsf8wW1uugWuVJ471alIdNSbra6PS1RWGgw+b3uhk7FYlbotToZytJ6J0RdO1pBeblYLiKeqOixaUWn7iS9kJyyk1pfE25O06pp/1L5GfjVj2T2Gq3WOX0Icl0zdJ+vvr4OF52t7oZg3pBLhAURZ4VMPG8pGfkhkQNXpheOZOdm6ZW8bIFspjOmdwTMvr0OBydfROAY38IT87ZS/hZxLZ1PfFCirnj1nNRo6fWTNdEhyfsyh6ALR9K19UPzCaZpkgUGuvphSz29j8kolnknRIayHbSm55TFYxTswvHn3vu6RzVyF9LuVaiwXxmVWc64F7Wjdx2XXIZ5AwBK7KfoEanNL803wXraNIr11ye0Hop598bWsONzzj2byvCFyLb0w3A95kB9jfcWJJkjhNTi08vntsSrgfilAo4IMJsXfexvzC3yx10jbmNCGZ6+g9K7IsZLkXDO/KNcebXS3cgfnwbrakpKQkVeowlOWb/rrEVKC9FGpZ2VrGFxhSW0uKXfuV22uV5qtE7Yr9Fm5RVXTi3YyfyxrPvwrDNc9suz2avbM1p0L2mva9SL72avv+ph7Q3yUEifoxSAN+bA7MnFTUqWtUYEDIMhg765ishxiGb9y23uavfk7asJzofygXfDCu60mA8EOmwJtm9f3/RH22zYnLDcAsHv9OR5jPw0ymymjw0qnW69qqPzIoRAh2T9ZmWbJKi4b+WXNuTv8pU37uTfhY27+Hdx427+XdqQv8W3vHEP/57YkCCMzNdK9tLh5FqrhRTIncIcYvYisqcF58yGQK9jHyO5fu6hxA36aO7GLfn3JpbGFunNDfnjpLfUBHZrrcu/t9VkxLev1de3lMYd5KqVthvAIzY5o5I+EltK8ijZaR4dbvLvY0QZVPaPjTZRLDKPE64ez4wLnSfcyz9PrK1J68+rrK4Km09yT44+vyM9P7kjA/gCt399Ybe+Ke2+qIphJP1iJo7kS6KK/t3cLz23Knx+GTsAyVMiFdBTZTB3CuAuGdzd7m+wPm1V/wTrPas1mZmnR2013c9QFp55XpMvb9erXTvgr4haWx39pOtX1jdlPF9FWExG+NWNymoo4/qaerO9JRx/7epWt6tyqdh3aORWhX/3UIUF2k0nr0beyjCU1VRh3yC/1trqWlrr2C02E53JjU1whK26OhH2T1OcbYTr9r3fOdnGZCgN0eXOBGNsnpXqXRMrSHJ3pd3WW1rb56NXK01MArmqWMpGyPzDgwi/5gxHvbkmBEI32jU30+uorPwpBUtngwChzdWjsNLRP118tvhW71Su949h3W9tNjOlfQLRDgIcjtITa3X5SUFLeXhSLf8DC5+fSuyLpaVdzl9iZ+JLnVyfIilqJXw+FfdRuLiTPVZ6fRqqX/y7HU/v6G+InkGSEn4meaGtXH15V95LkvnqLm7YqipZJZtXr7oRVs9x707el4/1V0NV7QCrJKpVguktx0k5zRfaLKQwscUi3sVMDZbSCbd9LqcYJ6Jqhyt/C13RbxRL7nTUrjczvs7ANcn1JGizauUNola21xu7nTCUXsnfxHyvtiz8ZhkB6S0iPwu6VRgkvU1S2+ftykkqrDvoQtDJPkLIkj5SUkfqUSI1PCyyq5VGqAv5XKMls9XYrHTu3dIWm/bxKTn0bFPH01LsWr1ikdtZ7l6rWJa9k/aBA7nr5mzZY3OT9Dg3JY+vsQQd7PPCzfYGRlZ6fPJaqPcaX4Ahsyv8C1lHYUf/TPgX1ZsRbNhWX5Yuu7tEn3X3oHBPlBq2r8DYMDn2ReRXYnK4SEuLX0VLEffXyPhIvzY9z3RE09Di3lMpRGnhTgrdtHAXha20cDeF7bTwNAqqqlK4h8J9UlAe78+2gAdkM7FT93X5VvP1sn7d0qb4DTKNYc/J6kEcgnW1Kr3NY78C9b1BMqiO4v5YP0nrZY6XdQljfBXxZD6CJ1OsCoHjw2Qfkd4TuByjJRK3OeHUOCQSdzyAEVTlfNF2P/k0vvvbKib/2yoUvBrBZHFj55ED7GGlKtbjGn+ShZJfveZPUHElrYU0+qujbsv+zoiypxmBSA0Av4J5zX5Imp+jynPnqIR694Yc/+/YSWo4dvkyAVBFrEynfUdoxSvP9SDenvqd8ud5siMh6sfsk/FSv8qv65QGtiZ9FVm6ihYu5UzI/TmO7iXt8eO4knNoCVNXmNVPMqtX1YdUMrV+PwUyTEfvE9Db6BPPKvwUOUVPNWG/WK/x8I0ihBYFBv4GBkJiVurnuuhqnJZpIDc/fwtOMu4fJvvc3pjPcLIJMwwHptWexOIs8hg9re5LDGJNtNJqnwRyCg2FNHwkmv4djbIqlFql+PdIcdS3P7NVnvK4WhBSVGSFFGMB+OYRvmzYVWPqbWFtSP0stB9E90fWUJfYC7q9SltclXKrqW/BmF5KC7K3RxX9UxmLFalfiqw2tzmyxJzH+kyKqAXUiaWAYKQj/Y2AFr1w7sucKAHeQUgF7oK6Dd4cQSv4ElHBkfzy44zxZu4bMlriVtKWmogYachpDgb+gRh19WHCg1Cz8SDRCJkPCUH52IJC4LRlQ287JtDQZV3iShJ6fPg4a0mfHuuPnc8NbXQYs9Cq6gncNOqrHevieG7J+3P4KMlFPVzaX1r9M7qc17v1c4FosTWPjBzMizR7bpn5Y/hyWojkG06YpEN9WW4Cd0aSRcvJiIwnuzLptVug/CGaL8vl0IHM88tWQnI4TjgXe/NNa/kHo3wvbeToyAp6Qdka5lV3D4RFXxwNCSq+HLpcNHPdZ17BCPYnlzDBrywjbeY8Ma/CQumtnXl1mTsae7PanyL+/mXzmjJX1QrqEmzWT6aa15XNYtqJQh1TpZiYINFMkel9xn02LgtQLHsP8zJ3EBNIJVOqKI85Zb02ZHnIrRgBkorqc3eDsAimHiWvN3vb9VB8PL/Fltq5Cuz+tFHPOpx2dyylb3MLG0PJLlH3+xLfbQKB7gpkSg2kmLElozO+3GvTRFgj9YsYCGImSC9D7Ed6jeYfsvzQ/4A5G9flXcx5YhwTeQt3bNDGX5q5cb+E5oOMx5cycZPZfixfDaYSWrHEk7uZRM2LmUaFRbomCUoTtWNtzGEsCChDWDwccY/dYl+Gk6UN0YuckcJsSUsvSVvpJVjyL0FcE636lyBGqmGp0uUt7J/segDUw5gLuGVDpMbOXnfSFpl6zLG27Qpp0c60cdeJ0QQyR3kY4f9Qga5NHE9g5ui/tszVQXFijo1S/xJMlI60NJPbHpsvp6Gd+qBFpNXmW8yBfN0Go5P/1JcCIVl2Xlss4LzXw/hLuEyic9tSL/1WRGpeeUZYAss1FpOJEnI5iQSDA1Y1i20Q64cstnU3Xzbla1Ox1axcS+qSFpmGDNtFBLOfrh5OuLzSR6eU/IfSJ6LBkMthLitR+GQ2jWe78p60fOmqrhLzhrK3kFFfE39Pv5cQpx0wdglw4kL6e/2D4UjMONsQXCTmjWWvVKAJ5MfKXvko0dilhHB27fd0YMP1oRQ6lrjnT0YDC4GmvH7LCna8kfRSRFYA1YKb5i2qbakw7r9ciz0FNqVAm0QqbV1i3lyW3xrSMAWk2OZNWHVFNW9JcXRLTz1q43m7GH19eiSejZejQCWQ10NOXl7C0AWFW2vblgBv2QtEONoIw5Xs7nOrv53JGG+eEZifouup4+yt6HRsyb8dk/P/A4oTAACFmQmUlNWVx29VL+wge1iUBkRFEWVVYlf1ZzCuLIpGZxyTKQREkMVRXIJMfCKLqCyKKBNBWwZEZBG3kdHu9lNBERARJREB7YjE5SDgTKIGFfL736rqMufkHOE87v/7v3vvu/e+5XtfkUgkrcgav7d+7vPFTe6xeSNnmQ1tOv7WS8489/ShV/fp3ffCPjcNHDFkzJhfDh5vLa3V2qKDJa2tgx1rnRMJPSQTbxTvrVeUNy02Ky5OmCWtOFFyzsQRN40fNWGSlSbq325mjfUPf1y0x0enhPFXEVhnK06WXDx89KiyXv9UvaX+zdo0w8aSbtVFVhdMmDTqhgnDx5UNnTDut2UDh0+4efiNVmo/4WNOAjeKXY4SDN+k5PrhN954y8QbRpZdfvawgeefPeyk3v36dS8bMvSysiG/GjSoh7W+0yzqbCdNN5uX7D5s4tUTJ020waNGjrlpvGWfhk0cP3zCqTnq5MRPOUx2IqDsn8Q//VOU6JXIDzRs1Oibxg2/4R9GynObEr3IlYwaUvkGVs/q4/LTZGKm2SCCvj5J152W6ZacaesuKrJiuFvq8U9ZiZV2siLmIen96ojgfmdxJ0JKTjW7tsAn4K0VE5a800KmwCfhQz3x02whfXm+KMcXwR+6rMAXw9sUSxTDr91c4EvgQxdLlCSnW3nLAl9a+p9mYy1RCl/Vs8DXk36ZJerBb/u3Al+/dIrZD5aoD181scA3QN/OtUQD+OceLfANxQ+xREP4T94t8I3gw1mWaJSc8Q95NYaPBluiMfzjHQt8E/Hj5X+GzRlQ4JvCZ/2jf2mBbwYv/03gB40r8MeQb/iNJZrCJycX+Oboa16awU+dV+Bb/IhPLi/wLXP8MfBTqwt8K/kfqbrNsEk/qn9r1e17SzSHz+wo8G3wo7xawB/4qsC3FZ+xREuW1c2lBf5n8KGX/M/EqMC3q/M/075pU+Dboy//reDT3Qp8B3gbZInW8P17F/iO8HHLLH+kvMAfm+PbwL9+XoE/TuPOt9JkIrt36raSJW8361HU6sV9Uxd2vv+qjscP6DTn2z0vbvtkUmWDYiupLLW8RW5L/4TBZ2y8RIPbOf8adrLs3gkZ7Qmtf611rWvWZE+tV+RErUOtOa0v1kZHrRvkpVoPzOVk5m0ecjmyWnOledEcqN6qreqomqk+qoXy1jHAgZcIicQy9rWOhs2J4mlJe4jzoCh/uDbKHw3ZE/IeOzTKD0kO8RHtBY7lcDoBV8kp7du1yzd1FOkfTvdE60Rx4rKtnPjJoiL+bZroYD2TVtr2aDHns52RtvBBOunALq4BTE4VQFSvImnh1HQWSAdlzGpLKiyelU46CNPSRQ5sSNoySYgOEHYEh++mLBxC3pUqsmgv4Ntyi99GnlQOUQUoq7J4icsiC7McmI1H1i+HOA+wu9wjsFvxEVoCXsFpEbKZRvmMaNM87ELeTEAC0dx8z2oCRjXaACHbsId2KuoHReA9MsIeD1FSQUCMHzeosIiAkEUWv+TAAiHHxRDKIT5KI6nwJT6iI4BdNNK2VyFqqUP8RDor8ZdwY0pEHQFQDAwIixh0C3KViI30VEG8QntTxP8S2g7I1RC7IRSSMbjdT9sLYVMdePBkBXE5Ju/zcC5mW0UwWyRuoSdtnYgTUF/FQxc6FqcJCBD+lZ5wEqAfvZiEtiJ+ycP/U8AM8m0Kb7cBVlF4jb8KIl7iwKI1yI0iCNk+wYQcQkP52AjoCrmFdo4IpT2SJjktbftLVJ0X6N2ZIhhA9ILUAPEGHp6hbYOw1RAsu4ghQy1E/BAPf4ac6RKNGxxYuAr5JxHnAXbj+Sy03hVxGsRmCGSI06yTq0gmVo/ANnpmIz8SQVbhAMSnZHdYRHMeipjfn6ctU8oqsBF4ZVnYPS4JeYUDz71S6yRmIox1oqCiL+TjL2jsgJT8H40PsMPUzcFahvwaORYi+htgf7kvLbPyZA4YJYodoFIFWFSerfm52KhmVokTyZ0p6hqhG5YyUCzwO0BY4IDgqD2AQ4V2K0S4HEAJfdavEdEXcCWtB+0CEV0BZ6KBZNXkiCY8nIr8WhGcAXiXCC5EvgxhvwGshPitS4Ke68BsMfJNCFsJ0C59FtkQp/YSDstokn0J2d6m54hUtwB2pCxej3wcIlQDJkA8jfwZRPQ44K5ysweRmbMwmQHQYXK1SwiFCqEDwU4vh3iOsZO06bRZ+LAegO00ybYKSOAXqI9DjhDxEGtiKsQfSGy2iEbM50KIAYT8iIjRgKUQ97lk9mIHtkGrnam30AI1B8enfZFbHxGrAb+gPUYbAhEeAGgObqWNhLDBmIznoTtyMkQo4WEa7f18MMsI8yGIWcilIq4EPA0h+WqOCNsh7iYP3yjL6TkEsQfiO4jQgKC02E9nFF/sV5Ahazvc6RKNZQ4s1hRosUd/gPges720z/ERHaIHUhIt5vE5BzgD+LmwBuIdiGgFarsgHsFEAcXzAZ9C3OkSk2sdWLgU+TFEqMBkD0Q/2g4IrdL4LXqRYX2eqIboheY6iNCfh2dpA9FYI2IoPU9CjIJ4HELnW7wEYg4dj4pYDbGQh9fQmAMR7wRQ7XgfWmNEfAVxAQTS2uUI+4J6foFcw3oKHwOugXgP2VTEBkCGrf000lik0WIAazLCMZJhSQ7AVwIylEM8g/3JtMm05fiwFoDDNGTonqa47YijO+NbB2zq83AK8jNUQzlAb8tfIZ+CsImAR7Cd7pLxFziwqBIpjWglABNThB9BaKGyBV2ycu0gn2Nml0AeSjH2ciqkq0F4KwdM9XpbYSkl9pcXnT+ArBX2oV5eewzUfjn6D4ArHZ8H95ZndXLKmLHadNgkrbJDhSiUBuRAaEWXzKJEDuSUZUb5Xam2PtRh7OPGAFf6Jjda9AITqbDjVTnlnJXt9GtSx5TmCBZgd6vYgGg51hmkv0fup9A7IbajsR9COyk+AnEmFdE+0dGgjaOjAUlt1zgwez2nEfZAYBJ/iZl8GA9yqh3powQi0rCSxEHiACLL9nBwuKp1hJCtvcfMyZmON3m376kqw/kFzJ4CsNgCASHRGO3AAiFnNRoCMNHJ7j6UpZwq7ewo1EHDShKHMbmdePLQAFC4BXCEmZ1I4ANF9OShKw9pWkMRQyC4PHgAGxknCoBVEApN941oiQNt36yGvQTAxBecfNhmiK4UbyuERom3QzCsJHEwtwAiy/UsogdVWwUhW71U41dpGyHiFyF20NbQdkPYErzuRZ2AkBBECPBZdQ3lIBMl5T6UpZwqbR/F67AIDcm7uSokKZedwcOuNEtLQGvRt3oeRFqLoReeBFxnl6qswMrqQ8Wr6Xsf79ETANZKzBsk3gkRHob4gLaA9gFEzLYHmE1CQyen7kvhHdogOt6EsBTgFYi+aDwvogfEkxAnY7YoTQTNAA+rBxCe46EdGptEdOWhlkaM4RBEuAig+/VYQtX9OkzDK+td5yqSkB9x4O/HSISthGCX5rKzo7751uO0NsXYAhE5R/JaB1Sq+E26BFyn1rd9GdXTtAuEWQQkoCr5W/AVEXdT6V0QnHjRlyK+Zb8cJWxyibUj7SKAIpzikho+6MBfXKak4peInTCYcosP4IPKZt9PtHg9RLSPh1W0zyDmEJCATcn16KUvVfNrAba2nhg2IqewyuXdatmAGu4YdmRgfN+it7mEuNBBtvy+Z8lB31lKyj+8PMvtNNLmHQFBHcJg1JFUyNizZQQxS6EBoHALCCPQYfH6brKegK60cshGIiiN/RmXVyM3MY7f9J6CmO0S4jEHfs5xgmBSBfiGwV9DtsdHtBkwgLaV9u+MLxAvoidsYaiVPLxBQOsgItlsgHyJthUi5oXOwvcZpYB4X4zGXh40/l4Rkx3o6pb9irJBAJU4heP8Fg0EFU7Ej29R0rZFEEgKQmkm0uJHYfekKA9fddafhVfZKQfCOrq08KL5OZBTxswOUAwpxcucIr1nAa6kGAXsWmZKOjllW+wv2Kf5guwm9mPYOj0H92MpgxgdBwZAWWaNiEpK0WKnCI9cXCmqyoG4a04np4xZLa+OeEaaFySA4wuzUtLPg7ougH3kZ9YKonJnS9wrk7HZAfcO9E+DiPggDt0rrLJBhUXHQpQ1r6hr8RFK7WAfZnoZ6y5oDBEU5ne0NRCRnKmaW5ELCSLEhDVf4Lg8OJauFwHRUgcY1TjQJcTi1yDiWjy8BfE5Tasg+j+I/WmXHolALXHq4hY3J9b4TxzO7SC20aHgA06jLsRLvkiK1+9HgD8A1aQOUArKdDTXxxWTy3maer2PmUAk7/FZOSCdnLLd40deEaUYjZ5x0wFQLfT48vKqceGHUMCXM9RfsVvFvo//CNBBsMol9bzXQXYbZ8rJ4jTAzzBpiFyKDz7D+AWWVsmeLGcUu56H2+hFxv+t8QGmnSIQHaAH1Ur/LsA2akNQOMt0FtGL+vYgqNHI3hBhDuBMpn+tS4idDriWUefTISLl0D27JqIOEMqysgkkaUffaHwKAUCVe12GN4L9DR+ao3AQJ+0hPkR2ErEFcDzqDIckoIUOLEynbGUQ4Rps8exnX0sITV5oCHFS2qIfGIUrjYV99Epu1PgACpHtsVm0E2kjIEJvQF/ULqAdIyID8QHlmop8murG8wGzIFa5hNjkgKMAuRYiIgf7I7X/FikfRpYBp0o7jE7bPX4YNOZBd1MBTjvACekCqOsCSJucWH5QAr6yVjBkHajr6u9LtDMVdErAlRr8GNR1of2yb/0ZhHufRgTYA4oZEJTZC8ivRfBNn2FGOeH5rx+VOWI79YYYS7QpEXcDzmc7PZy2zOAKNsgypihNT/wgPSyRMBOTnhD6MPBJvALVNhAcS3zl4Ow05BcM57ep9ZghwwNEJmD35XsG0qT6JfV225MJE2d2a1XWu82v9uHsk+rs+NahxgOyPjXsWEK062pQVcxX1GSTOEUEWZnVZNO8GVvlbfPO8kLYiykIVUallrwvbbP5Hyz9gsTK5F3gwAs9Cf06MJ2ueAFG+iyNVzJYDRV4Afk2hBLVgRZvTGs7ovEWqt9DIMv8PiLQtMJv+ZnWEPYyvR0pNvuiTBs1LMEZ74tI+7MbhI1z4Be22DfKKahiEjpAaKOERjjjfSEZjAmzclIyegRqm5HJA5wLHUVsSlmmOwRlqdUmt6HYMKU+nI4BBQLQjdMyOih03GZ6EOEBpCJUQqENPpC19XJEfBTya9I+mGbnfEXaH0F+StsKET6ktwZyO8QaiHgDD4/yQOniuWmWRQ+IusIvTNkCnbShFx5X083PnPrIBTRGT+s+w62uDlSWAcKVrEoH52D1IaOEf0H5E9ottM8h9JugkYeGRhLpOgcWbaHtE6Hp280DZLwFInwPqEIrWaGfsQi9hFrMhUTy80eWCH2YEzT4HMbHD6hrmR1EjmWpxTi1beX+IcOc4PR5AId/tNAlJlMdmP0aqd8erD9At4q2yOPwYV/hcCqNGbS3RCxlkhvT+3tkRZrSdKPIFYxvpwDa0JOi/VWqQwHV2I1DVkLE0wDTUtnxp4l4wkE2sIcholcBz2CyGbkHgh9q+WqnMO/jvItG2QNxNk1ydI6QY9eYDxEwiZbQuwm5GiKOAetoz9JqRCxDdT0PD7jEx2QHfm11Db9AY5JbCdljzu9nOkwE2Ls4EuhHu4Me7e4wFsB211rw/a9LiR8In5OlnxALAFdAdCTL62qo3yLK3Uc959DTkZ5H6PkMW39xLKz2+5bdxXRxHHK6p7Lv7P0piAqADjNJP4ABwQ9ggK3noWc692MzgWQ4Iv2XzrbaPny+V3ZjMT2E1O3MzmSxD4AgoKiiAmeEyElMj2I+nx4lobM64KySw9vT1GmuvHW8qxDsx1xlNjEzSKPMo6hfWfadkcwClnb2xxcBo4iZxnQJ8AewguTrgKy8SyBqgFU3snUgxh32z/0uE/HAlxzdAk8SjAMiK+P44tOKhNoCEgypa4V+QIt5t+oWFPYzRqYc4h0AOyNwLiHxMc+BZ+oaHo5MmiDlg+3hTm0J0keZQO8dEJJPEpAD/8YU+IKex6hwCfWzLUxCa2KQMz/t+lI/jr8wBunn4VwAB6StdUlARAhgISClEchBJmVKSj5q23BEySlp+yiR6sCwLl/RxSBDBT00AXuV0AT8N0oOxPAdRMz5EnEfir9lNlvgRQNGujHtZBHokhW9gTqvY4WGJJL/cmDRzJyGiuYmF+d9nAGBU+tO8BrFeKv4sEjioFYAIsv2xLNgu9OGi8DWTqNdgkZjiHAdDztYvAzH4YHG7wFzKfFalxAbHWR/6JBGIAeZ+M1RPmrJUk7LSNtHUR00rCRx2K+pVix/Wm8OtDijO34M6rr66xpV2wJXogQi/y7YyM7Kg7ougM3W+RIOuynONGl5QHaUWKAd4TWm53USMCbbepPzp9jcxXKM3wRofT7ukhQVEYT+28s19J6Wib1Dcx/3UiKcurxONQf4uKEbbB7QhbFAb9rPaU1EDEVFnm5CrsZbmA2YhScF4Dfblx1k/2/BNfYBZHIo7+MwoDdNUgEIMK4XOyjDxbyaHajG1oXeOlDXtTiFtu9GRezAlVYwUh2o68L7NF2gQ3sedsuHgP8QL0DB/IS8oZr68J9m9lF19qrWvAYH15ZzKKvnL4A19JyQ4jc/EcMAJ1SjkaLYVRABUMu9T7I+wzioG283D38H(/figma)--&gt;&quot;&gt;&lt;/span&gt;&lt;span style=&quot;&quot;&gt;password VARCHAR(255) NOT NULL,&lt;/span&gt;&lt;span style=&quot;&quot;&gt;&lt;br&gt;&lt;/span&gt;" style="text;strokeColor=none;align=center;fillColor=none;html=1;verticalAlign=middle;whiteSpace=wrap;rounded=0;" vertex="1" parent="1">
                    <mxGeometry x="10" y="185" width="160" height="230" as="geometry"/>
                </mxCell>
                <mxCell id="10" value="- id&lt;br&gt;INT NOT NULL AUTO_INCREMENT PRIMARY KEY&lt;br&gt;- img VARCHAR (255) NOT NULL&lt;br&gt;- date DATE NOT NULL&lt;br&gt;- description TEXT NOT NULL" style="text;strokeColor=none;align=center;fillColor=none;html=1;verticalAlign=middle;whiteSpace=wrap;rounded=0;" vertex="1" parent="1">
                    <mxGeometry x="440" y="200" width="160" height="160" as="geometry"/>
                </mxCell>
                <mxCell id="11" value="" style="edgeStyle=none;html=1;endArrow=none;startArrow=none;exitX=1;exitY=0.5;exitDx=0;exitDy=0;entryX=0.25;entryY=1;entryDx=0;entryDy=0;" edge="1" parent="1" source="21" target="20">
                    <mxGeometry relative="1" as="geometry">
                        <mxPoint x="390" y="140" as="targetPoint"/>
                        <mxPoint x="240" y="139.9999999999999" as="sourcePoint"/>
                    </mxGeometry>
                </mxCell>
                <mxCell id="12" value="" style="edgeStyle=none;html=1;endArrow=none;" edge="1" parent="1" source="4">
                    <mxGeometry relative="1" as="geometry">
                        <mxPoint x="170" y="253" as="targetPoint"/>
                        <mxPoint x="170" y="265" as="sourcePoint"/>
                    </mxGeometry>
                </mxCell>
                <mxCell id="13" style="edgeStyle=none;html=1;entryX=0.5;entryY=1;entryDx=0;entryDy=0;" edge="1" parent="1" source="14" target="10">
                    <mxGeometry relative="1" as="geometry"/>
                </mxCell>
                <mxCell id="14" value="" style="whiteSpace=wrap;html=1;" vertex="1" parent="1">
                    <mxGeometry x="440" y="550" width="160" height="40" as="geometry"/>
                </mxCell>
                <mxCell id="15" value="" style="whiteSpace=wrap;html=1;" vertex="1" parent="1">
                    <mxGeometry x="440" y="590" width="160" height="160" as="geometry"/>
                </mxCell>
                <mxCell id="16" value="King" style="text;strokeColor=none;align=center;fillColor=none;html=1;verticalAlign=middle;whiteSpace=wrap;rounded=0;" vertex="1" parent="1">
                    <mxGeometry x="490" y="555" width="60" height="30" as="geometry"/>
                </mxCell>
                <mxCell id="17" value="- id INT NOT NULL AUTO_INCREMENT PRIMARY KEY&lt;br&gt;&lt;div style=&quot;text-align: left;&quot;&gt;&lt;span style=&quot;background-color: initial;&quot;&gt;- name VARCHAR (100)&lt;/span&gt;&lt;/div&gt;&lt;div style=&quot;text-align: left;&quot;&gt;&lt;br&gt;&lt;/div&gt;" style="text;strokeColor=none;align=center;fillColor=none;html=1;verticalAlign=middle;whiteSpace=wrap;rounded=0;" vertex="1" parent="1">
                    <mxGeometry x="440" y="590" width="160" height="160" as="geometry"/>
                </mxCell>
                <mxCell id="18" value="" style="edgeStyle=none;html=1;endArrow=none;" edge="1" parent="1" source="15">
                    <mxGeometry relative="1" as="geometry">
                        <mxPoint x="600" y="658" as="targetPoint"/>
                        <mxPoint x="600" y="670" as="sourcePoint"/>
                    </mxGeometry>
                </mxCell>
                <mxCell id="19" value="N,M" style="text;strokeColor=none;align=center;fillColor=none;html=1;verticalAlign=middle;whiteSpace=wrap;rounded=0;" vertex="1" parent="1">
                    <mxGeometry x="530" y="360" width="60" height="30" as="geometry"/>
                </mxCell>
                <mxCell id="20" value="N,M" style="text;strokeColor=none;align=center;fillColor=none;html=1;verticalAlign=middle;whiteSpace=wrap;rounded=0;" vertex="1" parent="1">
                    <mxGeometry x="380" y="250" width="60" height="30" as="geometry"/>
                </mxCell>
                <mxCell id="22" value="" style="edgeStyle=none;html=1;endArrow=none;startArrow=none;exitX=1;exitY=0.5;exitDx=0;exitDy=0;entryX=0;entryY=0.5;entryDx=0;entryDy=0;" edge="1" parent="1" source="9" target="21">
                    <mxGeometry relative="1" as="geometry">
                        <mxPoint x="390" y="140" as="targetPoint"/>
                        <mxPoint x="200" y="140" as="sourcePoint"/>
                    </mxGeometry>
                </mxCell>
                <mxCell id="21" value="" style="whiteSpace=wrap;html=1;" vertex="1" parent="1">
                    <mxGeometry x="220" y="110" width="160" height="380" as="geometry"/>
                </mxCell>
                <mxCell id="23" value="- id INT NOT NULL AUTO_INCREMENT PRIMARY KEY&lt;br&gt;- user_id INT NOT NULL CONSTRAINT fk_organizes_user FOREIGN KEY (user_id) REFERENCES user(id)&lt;br&gt;- demonstration_id INT NOT NULL CONSTRAINT fk_organizes_demonstration FOREIGN KEY (demonstration_id) REFERENCES demonstration(id)&lt;br&gt;" style="text;strokeColor=none;align=center;fillColor=none;html=1;verticalAlign=middle;whiteSpace=wrap;rounded=0;" vertex="1" parent="1">
                    <mxGeometry x="220" y="110" width="160" height="380" as="geometry"/>
                </mxCell>
                <mxCell id="25" value="" style="whiteSpace=wrap;html=1;" vertex="1" parent="1">
                    <mxGeometry x="220" y="50" width="160" height="60" as="geometry"/>
                </mxCell>
                <mxCell id="26" value="organizes" style="text;strokeColor=none;align=center;fillColor=none;html=1;verticalAlign=middle;whiteSpace=wrap;rounded=0;" vertex="1" parent="1">
                    <mxGeometry x="220" y="50" width="160" height="60" as="geometry"/>
                </mxCell>
                <mxCell id="27" value="" style="whiteSpace=wrap;html=1;" vertex="1" parent="1">
                    <mxGeometry x="400" y="390" width="380" height="30" as="geometry"/>
                </mxCell>
                <mxCell id="28" value="" style="whiteSpace=wrap;html=1;" vertex="1" parent="1">
                    <mxGeometry x="400" y="420" width="380" height="110" as="geometry"/>
                </mxCell>
                <mxCell id="29" value="participate" style="text;strokeColor=none;align=center;fillColor=none;html=1;verticalAlign=middle;whiteSpace=wrap;rounded=0;" vertex="1" parent="1">
                    <mxGeometry x="400" y="390" width="380" height="30" as="geometry"/>
                </mxCell>
                <mxCell id="30" value="-id INT NOT NULL AUTO_INCREMENT PRIMARY KEY&lt;br&gt;- king_id INT NOT NULL CONSTRAINT fk_participate_king FOREIGN KEY (king_id) REFERENCES king(id)&lt;br&gt;- demonstration_id INT NOT NULL CONSTRAINT fk_participate_demonstration FOREIGN KEY (demonstration_id) REFERENCES demonstration(id)&lt;br&gt;" style="text;strokeColor=none;align=center;fillColor=none;html=1;verticalAlign=middle;whiteSpace=wrap;rounded=0;" vertex="1" parent="1">
                    <mxGeometry x="400" y="420" width="380" height="110" as="geometry"/>
                </mxCell>
                <mxCell id="31" value="MPD" style="text;strokeColor=none;align=center;fillColor=none;html=1;verticalAlign=middle;whiteSpace=wrap;rounded=0;" vertex="1" parent="1">
                    <mxGeometry x="20" y="20" width="100" height="60" as="geometry"/>
                </mxCell>
            </root>
        </mxGraphModel>
    </diagram>
</mxfile>